<?xml version="1.0" encoding="UTF-8" standalone="no"?>
<!-- Created with Inkscape (http://www.inkscape.org/) -->

<svg
   xmlns:dc="http://purl.org/dc/elements/1.1/"
   xmlns:cc="http://creativecommons.org/ns#"
   xmlns:rdf="http://www.w3.org/1999/02/22-rdf-syntax-ns#"
   xmlns:svg="http://www.w3.org/2000/svg"
   xmlns="http://www.w3.org/2000/svg"
   xmlns:sodipodi="http://sodipodi.sourceforge.net/DTD/sodipodi-0.dtd"
   xmlns:inkscape="http://www.inkscape.org/namespaces/inkscape"
   width="210mm"
   height="297mm"
   viewBox="0 0 210 297"
   version="1.1"
   id="svg8"
   inkscape:version="0.92.4 (5da689c313, 2019-01-14)"
   sodipodi:docname="logo.svg">
  <defs
     id="defs2" />
  <sodipodi:namedview
     id="base"
     pagecolor="#ffffff"
     bordercolor="#666666"
     borderopacity="1.0"
     inkscape:pageopacity="0.0"
     inkscape:pageshadow="2"
     inkscape:zoom="0.7"
     inkscape:cx="94.285714"
     inkscape:cy="560"
     inkscape:document-units="mm"
     inkscape:current-layer="layer1"
     showgrid="false"
     inkscape:window-width="1920"
     inkscape:window-height="1017"
     inkscape:window-x="-8"
     inkscape:window-y="-8"
     inkscape:window-maximized="1" />
  <metadata
     id="metadata5">
    <rdf:RDF>
      <cc:Work
         rdf:about="">
        <dc:format>image/svg+xml</dc:format>
        <dc:type
           rdf:resource="http://purl.org/dc/dcmitype/StillImage" />
        <dc:title></dc:title>
      </cc:Work>
    </rdf:RDF>
  </metadata>
  <g
     inkscape:label="Layer 1"
     inkscape:groupmode="layer"
     id="layer1">
    <g
       id="g21"
       transform="matrix(0.65595238,0,0,0.65595238,71.807377,51.213853)">
      <path
         style="fill:#fefefe;stroke-width:0.26458332"
         d="m -106.58929,96.672619 v -158.75 h 158.75 158.75 v 158.75 158.750001 h -158.75 -158.75 z"
         id="path35"
         inkscape:connector-curvature="0" />
      <path
         style="fill:#ddeef1;stroke-width:0.26458332"
         d="m -54.36054,119.32095 c -1.000009,-1.00001 -1.13702,-1.84254 -0.49997,-3.07446 0.481566,-0.93124 1.138994,-1.31762 2.241966,-1.31762 2.266468,0 3.534227,2.00319 2.515057,3.97405 -0.845254,1.63454 -2.844249,1.83084 -4.257053,0.41803 z m 15.709672,-0.3066 c -1.503777,-0.81607 -1.73533,-2.75522 -0.494789,-4.14363 0.642176,-0.71872 0.94597,-0.8556 1.84654,-0.83199 1.387838,0.0364 2.287905,0.63875 2.665913,1.78412 0.432483,1.31044 -0.182343,2.6967 -1.426607,3.21658 -1.148183,0.47975 -1.670127,0.47469 -2.591057,-0.0251 z m -29.599977,-5.70096 c -1.018889,-1.09073 -1.050861,-2.50522 -0.08263,-3.65589 0.57752,-0.68634 0.871271,-0.81405 1.872438,-0.81405 1.655157,0 2.734252,1.05656 2.734252,2.67715 0,1.61911 -0.985761,2.61452 -2.589181,2.61452 -0.964631,0 -1.300517,-0.14265 -1.934874,-0.82173 z m 42.991328,-1.81883 c -0.810294,-0.3274 -1.690346,-1.55487 -1.6892,-2.35606 0.0013,-0.97518 0.924941,-2.37447 1.782315,-2.70045 2.290705,-0.87092 4.509278,1.53694 3.397335,3.68719 -0.683154,1.32109 -2.16807,1.90362 -3.49045,1.36932 z M -51.6866,110.63178 c -1.440804,-1.23933 -0.702003,-3.37972 1.163839,-3.37178 1.099748,0.005 1.41746,0.17252 1.837613,0.97075 0.676362,1.28498 0.0186,2.60425 -1.438579,2.8853 -0.629399,0.1214 -0.987867,0.0103 -1.562873,-0.48427 z m 10.7125,-0.92426 c -0.692925,-0.88091 -0.545705,-2.09227 0.337423,-2.77641 1.055344,-0.81756 2.587779,-0.39138 3.10791,0.86433 0.828286,1.99966 -2.098686,3.62407 -3.445333,1.91208 z m -20.61682,-3.41329 c -0.727437,-0.92479 -0.692608,-1.82851 0.101063,-2.62218 0.793668,-0.79367 1.697389,-0.8285 2.622177,-0.10106 0.873532,0.68712 0.955813,2.10337 0.167973,2.89121 -0.787839,0.78784 -2.204093,0.70556 -2.891213,-0.16797 z m 31.20163,-1.23462 c -0.997998,-0.50195 -1.438563,-1.59191 -1.006626,-2.4904 0.775674,-1.6135 2.759742,-1.81084 3.515355,-0.34965 0.542324,1.04874 0.507256,1.45118 -0.193625,2.22213 -0.765394,0.84192 -1.48686,1.03448 -2.315104,0.61792 z m -47.066536,-3.24357 c -1.562359,-1.31463 -1.239438,-3.642744 0.628838,-4.533662 1.289582,-0.614958 2.723324,-0.06118 3.398025,1.312473 1.327134,2.701979 -1.733907,5.150589 -4.026863,3.221189 z m 64.91583,-3.636653 c -2.89247,-1.381623 -4.577945,-4.442495 -4.268861,-7.752377 0.280691,-3.005875 1.923256,-5.32258 4.619315,-6.515176 2.2691621,-1.003758 7.1370298,-0.255342 7.4054734,1.13856 0.041061,0.213217 -0.096163,0.621279 -0.3049429,0.906801 -0.3724698,0.509387 -0.4048442,0.510053 -1.7242393,0.03561 -2.9377296,-1.056391 -5.6065152,-0.288301 -6.9101332,1.98877 -0.540959,0.944914 -0.658614,1.50491 -0.658614,3.134799 0,1.629889 0.117655,2.189885 0.658614,3.134799 1.303618,2.277071 3.9724036,3.045161 6.9101332,1.98877 1.3193951,-0.474448 1.3517695,-0.473781 1.7242393,0.03561 0.9680099,1.323829 -0.5914628,2.314853 -3.8522116,2.448028 -1.9637299,0.0802 -2.4434749,0.0076 -3.5987729,-0.544184 z m 104.925278,0.315526 c -1.164553,-0.46477 -2.380366,-1.562788 -2.98691,-2.697517 -0.544539,-1.018736 -0.599927,-1.525524 -0.679429,-6.216822 -0.09175,-5.414275 -0.004,-5.872538 1.124371,-5.872538 1.128974,0 1.211093,0.375528 1.212136,5.543021 7.93e-4,4.398076 0.05455,4.99587 0.516535,5.753541 0.731285,1.199341 1.646058,1.712119 3.05435,1.712119 1.408292,0 2.323065,-0.512778 3.05435,-1.712119 0.462185,-0.758004 0.515649,-1.355645 0.516535,-5.774063 0.0011,-5.301959 0.09069,-5.658799 1.37549,-5.476663 l 0.60987,0.08646 0.0743,5.159375 c 0.0606,4.20801 -0.003,5.363782 -0.346524,6.267895 -0.491088,1.293635 -1.75173,2.637705 -2.960428,3.156355 -0.972879,0.417462 -3.594333,0.458213 -4.564656,0.07096 z m 14.925368,0.01143 c -0.4452,-0.129365 -1.26759,-0.631246 -1.82755,-1.115288 -0.86299,-0.745998 -0.99083,-0.988692 -0.83916,-1.593008 0.13269,-0.528691 0.34454,-0.712933 0.81974,-0.712933 0.35244,0 0.71544,0.120763 0.80666,0.268364 0.36774,0.595024 2.34151,1.350171 3.55355,1.359559 2.32762,0.01802 3.68076,-1.268571 2.97145,-2.825332 -0.35715,-0.783865 -1.30235,-1.281724 -3.49636,-1.841622 -3.2645,-0.833075 -4.68758,-2.399324 -4.41084,-4.854567 0.16686,-1.48042 0.84274,-2.402353 2.31131,-3.152756 3.09611,-1.582037 8.45373,0.149201 7.57206,2.446803 -0.19455,0.50697 -1.32876,0.516149 -1.7454,0.01413 -1.16877,-1.408284 -5.35422,-1.219938 -5.72507,0.257633 -0.42932,1.710558 0.37883,2.440382 3.70281,3.343939 1.33253,0.362223 2.31024,0.820801 2.97483,1.395296 0.9195,0.794843 0.9974,0.976522 1.09459,2.55288 0.0891,1.445821 0.0127,1.834264 -0.516,2.623177 -0.92335,1.377744 -2.5972,2.121911 -4.70731,2.092804 -0.95143,-0.01312 -2.09412,-0.129706 -2.53931,-0.259074 z M -0.43845667,98.207202 c -0.2304071,-0.230407 -0.3175,-2.175462 -0.3175,-7.090833 0,-7.113654 0.0473604,-7.408333 1.190625,-7.408333 1.13318927,0 1.19062497,0.327638 1.19062497,6.791886 v 6.156888 l 3.3451139,0.07405 c 2.7812365,0.06157 3.3919028,0.148363 3.6226776,0.514895 0.2011971,0.319551 0.1818773,0.556138 -0.070218,0.859896 -0.2902585,0.349739 -1.0338859,0.419052 -4.4958027,0.419052 -2.8734623,0 -4.24557823,-0.09756 -4.46552107,-0.3175 z M 11.591266,98.348313 c -0.09701,-0.09701 -0.176389,-0.343721 -0.176389,-0.548236 0,-0.36291 4.723579,-11.919892 5.462323,-13.364437 0.400325,-0.782796 1.399455,-0.992894 1.887384,-0.396875 0.605655,0.739828 5.647589,13.190633 5.56818,13.750343 -0.09561,0.67387 -1.075756,0.966758 -1.647452,0.492294 -0.188159,-0.156157 -0.626028,-0.998736 -0.973045,-1.872395 l -0.630939,-1.588471 -3.17958,0.0011 -3.17958,0.0011 -0.498279,1.255779 c -0.752567,1.896515 -1.16717,2.446271 -1.844974,2.446271 -0.336193,0 -0.690636,-0.07937 -0.787649,-0.176389 z m 8.554861,-5.475762 c 0,-0.09327 -1.142175,-2.85093 -1.912268,-4.616981 l -0.38217,-0.876422 -1.101738,2.667434 c -0.605957,1.467091 -1.101741,2.724684 -1.101741,2.794653 0,0.06997 1.012031,0.127217 2.248958,0.127217 1.236927,0 2.248959,-0.04316 2.248959,-0.0959 z m 8.255,5.334651 c -0.230407,-0.230407 -0.3175,-2.175462 -0.3175,-7.090833 0,-7.113654 0.04736,-7.408333 1.190625,-7.408333 1.143264,0 1.190625,0.294679 1.190625,7.408333 0,7.113654 -0.04736,7.408333 -1.190625,7.408333 -0.305594,0 -0.6985,-0.142875 -0.873125,-0.3175 z m 7.14375,0 c -0.50581,-0.505809 -0.446863,-13.797846 0.06307,-14.22105 0.268843,-0.223117 1.569884,-0.290885 4.431771,-0.230833 3.558032,0.07466 4.137599,0.149426 4.760901,0.614175 1.038564,0.774377 1.803845,2.284346 1.803845,3.559149 0,1.242705 -0.293484,1.939366 -1.248987,2.964791 l -0.655161,0.703109 0.598255,0.80918 c 0.347953,0.470633 0.68273,1.431706 0.800168,2.297094 0.111051,0.818354 0.398902,1.705581 0.639665,1.971622 0.24076,0.266039 0.398415,0.761418 0.350343,1.100839 -0.07195,0.507987 -0.246137,0.617133 -0.984896,0.617133 -1.209172,0 -1.876158,-0.928005 -2.113454,-2.94054 -0.101032,-0.856856 -0.272876,-1.702218 -0.381874,-1.878581 -0.313891,-0.507886 -1.999604,-0.866344 -4.081663,-0.867945 l -1.918229,-0.0015 v 2.491901 c 0,1.370547 -0.07227,2.680235 -0.1606,2.910417 -0.189738,0.494453 -1.443183,0.560983 -1.90315,0.101015 z m 7.193227,-7.608633 c 1.443286,-0.548735 1.928873,-2.90553 0.855707,-4.153159 -0.595855,-0.692725 -0.772112,-0.737452 -3.307291,-0.839277 l -2.677893,-0.107559 v 2.676605 2.676607 h 2.231734 c 1.227455,0 2.531438,-0.113948 2.897743,-0.253217 z m 8.946356,7.608633 c -0.230407,-0.230407 -0.3175,-2.175462 -0.3175,-7.090833 0,-4.915371 0.08709,-6.860426 0.3175,-7.090833 0.220917,-0.220917 1.62659,-0.3175 4.6209,-0.3175 3.851524,0 4.329803,0.04934 4.554855,0.469852 0.15952,0.298064 0.158115,0.636648 -0.0038,0.926042 -0.221187,0.395237 -0.71311,0.456189 -3.681733,0.456189 H 53.74821 v 2.248958 2.248959 h 3.014401 c 3.204636,0 3.573314,0.157128 3.191478,1.360191 -0.140184,0.441679 -0.4649,0.491892 -3.181001,0.491892 H 53.74821 v 2.38125 2.38125 h 3.426436 c 2.968623,0 3.460546,0.06095 3.681733,0.456189 0.161951,0.289394 0.163356,0.627978 0.0038,0.926042 -0.225052,0.420515 -0.703331,0.469852 -4.554855,0.469852 -2.99431,0 -4.399984,-0.09658 -4.6209,-0.3175 z m 21.695833,0 c -0.230457,-0.230457 -0.3175,-2.180023 -0.3175,-7.111354 0,-5.59122 0.06746,-6.84984 0.381101,-7.110137 0.269105,-0.223338 1.550765,-0.291174 4.361278,-0.230836 l 3.980177,0.08545 0.864243,0.864984 c 0.796232,0.796915 0.864243,0.998556 0.864243,2.562315 0,1.494573 -0.08765,1.788816 -0.73374,2.463189 l -0.733737,0.765858 0.6682,0.304453 c 1.02339,0.466288 1.72325,1.82952 1.723919,3.357951 7.94e-4,1.747208 -0.673103,3.025622 -1.982975,3.761973 -0.961327,0.540414 -1.411195,0.595347 -4.908021,0.5993 -2.646654,0.003 -3.948906,-0.09487 -4.167188,-0.313148 z m 8.064003,-2.437389 c 0.853591,-0.992359 0.835181,-2.501641 -0.04055,-3.324349 -0.570981,-0.536409 -0.994703,-0.631595 -3.307291,-0.742953 l -2.652409,-0.127722 v 2.584288 2.584289 l 2.692961,-0.129675 c 2.521085,-0.121399 2.732167,-0.175257 3.307292,-0.843878 z m -0.735981,-6.612681 c 0.748189,-0.677566 0.756846,-2.275409 0.01595,-2.9459 -0.415755,-0.376256 -1.087863,-0.5154 -2.910416,-0.602538 l -2.36981,-0.113303 v 2.175357 2.175356 l 2.353855,-0.09247 c 1.855542,-0.0729 2.471677,-0.199176 2.910417,-0.596501 z m 39.238645,9.05007 c -0.23041,-0.230407 -0.3175,-2.175462 -0.3175,-7.090833 0,-7.113654 0.0474,-7.408333 1.19063,-7.408333 1.02349,0 1.19062,0.490257 1.19062,3.4925 v 2.8575 h 3.57187 c 4.0922,0 3.62104,0.412027 3.63068,-3.175 0.007,-2.700237 0.23328,-3.231378 1.33009,-3.125632 l 0.86007,0.08292 v 7.276042 7.276042 l -0.75984,0.08683 c -0.41791,0.04776 -0.89204,-0.04538 -1.05363,-0.206963 -0.16158,-0.161583 -0.3173,-1.331751 -0.34603,-2.60037 -0.0287,-1.268621 -0.0606,-2.634004 -0.0709,-3.034186 l -0.0186,-0.727604 h -3.57188 -3.57187 v 2.989792 c 0,3.140228 -0.15916,3.624791 -1.19062,3.624791 -0.3056,0 -0.6985,-0.142875 -0.87313,-0.3175 z m 16.68012,0.01138 c -0.51768,-0.517678 -0.4678,-13.801272 0.0534,-14.233869 0.92036,-0.76383 1.5335,-0.223199 4.03475,3.55762 1.347,2.036101 2.54132,3.728529 2.65404,3.760954 0.11272,0.03242 1.33604,-1.633479 2.71848,-3.702005 2.30164,-3.44388 2.58046,-3.760952 3.30729,-3.760952 h 0.79375 v 7.276042 7.276042 h -0.92604 -0.92604 l -0.13229,-5.073545 -0.13229,-5.073544 -1.98438,3.01548 c -1.0914,1.658515 -2.14997,3.081105 -2.35238,3.161316 -0.75955,0.301001 -1.27154,-0.21709 -3.20387,-3.242029 l -1.98437,-3.106428 -0.13229,5.159375 -0.1323,5.159375 -0.66331,0.07752 c -0.36483,0.04263 -0.81131,-0.07048 -0.99219,-0.251354 z m 17.83919,0.129739 c -0.097,-0.09702 -0.17639,-0.343726 -0.17639,-0.548241 0,-0.36291 4.72358,-11.919892 5.46232,-13.364437 0.40031,-0.782796 1.39946,-0.992894 1.88738,-0.396875 0.60566,0.739828 5.64758,13.190633 5.56818,13.750343 -0.0956,0.67387 -1.07574,0.966758 -1.64745,0.492294 -0.18815,-0.156157 -0.62603,-0.998736 -0.97304,-1.872395 l -0.63095,-1.588471 -3.17957,0.0011 -3.17958,0.0011 -0.49828,1.255779 c -0.75257,1.896515 -1.16717,2.446271 -1.84497,2.446271 -0.3362,0 -0.69064,-0.07937 -0.78765,-0.176389 z m 8.55486,-5.475767 c 0,-0.09327 -1.14218,-2.85093 -1.91228,-4.616981 l -0.38216,-0.876422 -1.10173,2.667434 c -0.60597,1.467091 -1.10175,2.724684 -1.10175,2.794653 0,0.06997 1.01203,0.127217 2.24896,0.127217 1.23693,0 2.24896,-0.04316 2.24896,-0.0959 z m 8.0981,5.233636 c -0.0883,-0.230182 -0.1606,-3.430291 -0.1606,-7.111352 0,-5.513101 0.0674,-6.748766 0.38232,-7.01013 0.92223,-0.765402 1.52979,-0.210153 5.54818,5.070602 2.1826,2.86824 4.01442,5.168905 4.07075,5.112592 0.0563,-0.05631 0.10993,-2.16493 0.11916,-4.685814 0.0193,-5.273265 0.13851,-5.846532 1.19066,-5.725467 l 0.72747,0.08371 v 7.276042 7.276042 l -0.81436,0.07951 c -0.77177,0.07536 -1.02783,-0.195691 -4.89479,-5.181301 l -4.08044,-5.260816 -0.14647,5.181301 c -0.0805,2.849719 -0.16983,5.211069 -0.19844,5.247449 -0.21354,0.271778 -1.61242,-0.01095 -1.74344,-0.352368 z M -68.164128,98.08304 c -0.570608,-0.229584 -1.14255,-1.620991 -0.962001,-2.340348 0.46691,-1.860328 3.077969,-1.926333 3.774086,-0.09541 0.298132,0.784143 -0.206174,2.182183 -0.880507,2.440948 -0.511702,0.196358 -1.436817,0.193871 -1.931578,-0.0052 z M -79.837251,87.586542 c -1.50839,-0.87039 -1.782677,-2.859024 -0.579993,-4.20506 0.663041,-0.742072 0.946452,-0.864071 2.007283,-0.864071 1.025371,0 1.343729,0.126127 1.873787,0.742357 0.852993,0.991664 0.871283,2.667706 0.04044,3.705918 -0.711116,0.888603 -2.349847,1.193081 -3.341519,0.620856 z m 8.858486,-0.941496 c -0.72667,-0.802961 -0.627457,-2.125234 0.213754,-2.848811 1.139071,-0.97979 2.301179,-0.788922 2.960598,0.486253 0.430336,0.832181 0.309221,1.639655 -0.360305,2.40211 -0.559371,0.637014 -2.222923,0.613632 -2.814047,-0.03955 z m 3.831595,-9.98415 c -0.301604,-0.383427 -0.54837,-0.962682 -0.54837,-1.287235 0,-0.324554 0.246766,-0.903809 0.54837,-1.287235 1.11234,-1.414111 3.42038,-0.520475 3.42038,1.324313 0,1.773688 -2.336747,2.627773 -3.42038,1.250157 z m 38.70442,-1.684348 c -0.691465,-0.276035 -1.417373,-1.265032 -1.417373,-1.93107 0,-0.269856 0.360185,-0.850831 0.800409,-1.291055 0.647838,-0.647841 0.937832,-0.766115 1.521354,-0.620493 1.132078,0.282519 1.646987,0.904906 1.646987,1.990772 0,1.431777 -1.278713,2.359893 -2.551377,1.851846 z m -47.475225,-2.096077 c -0.881708,-0.881706 -1.009055,-1.97217 -0.373785,-3.200649 0.504513,-0.975617 1.142339,-1.31762 2.457328,-1.31762 1.863037,0 3.042166,1.84226 2.306323,3.603374 -0.763468,1.827242 -3.009437,2.295327 -4.389866,0.914895 z m 52.513685,-3.036602 c -1.220301,-1.220301 -1.269675,-2.739782 -0.126185,-3.883268 1.698022,-1.698022 4.506502,-0.448665 4.506502,2.004726 0,2.518762 -2.617538,3.641321 -4.380317,1.878542 z m -35.844935,-0.932148 c -0.935128,-0.935125 -0.975503,-1.607968 -0.153813,-2.563236 1.247828,-1.450689 3.349165,-0.671576 3.349165,1.241772 0,0.763151 -0.164116,1.127215 -0.69714,1.546492 -0.949013,0.746495 -1.583876,0.689308 -2.498212,-0.225028 z m 21.848477,-0.869088 c -1.277853,-0.732848 -1.518351,-1.838264 -0.642255,-2.952041 0.68712,-0.873532 2.103374,-0.955812 2.891213,-0.167973 0.787839,0.787839 0.705559,2.204093 -0.167973,2.891213 -0.782749,0.615712 -1.306021,0.673243 -2.080985,0.228801 z m -11.693853,-2.632715 c -1.226379,-0.61413 -1.295863,-2.74706 -0.110165,-3.381629 1.576515,-0.843725 3.414924,0.323654 3.087539,1.96057 -0.08738,0.43691 -0.306641,0.942147 -0.48724,1.122749 -0.475618,0.475615 -1.815526,0.636133 -2.490134,0.29831 z m -15.268594,-2.475421 c -1.101799,-0.57962 -1.462273,-1.169265 -1.471848,-2.40757 -0.0089,-1.15397 0.805847,-2.286373 1.893409,-2.631551 0.895286,-0.284155 2.279983,0.131397 2.849213,0.855054 1.706216,2.169104 -0.860232,5.452178 -3.270774,4.184067 z m 28.940019,-2.21131 c -1.061749,-1.061747 -1.252762,-2.029815 -0.629811,-3.191915 0.956183,-1.783731 3.533071,-1.921066 4.703077,-0.250648 1.784964,2.548395 -1.874554,5.641274 -4.073266,3.442563 z M -50.027951,58.4391 c -0.928912,-0.522566 -1.263422,-1.170924 -1.263422,-2.448798 0,-1.563656 1.631497,-2.829873 3.248064,-2.520845 0.860269,0.164449 1.943492,1.198002 2.096956,2.000798 0.163814,0.856938 -0.232302,2.149102 -0.822569,2.683285 -0.70799,0.640723 -2.368981,0.78626 -3.259029,0.28556 z"
         id="path33"
         inkscape:connector-curvature="0" />
      <path
         style="fill:#aed2db;stroke-width:0.26458332"
         d="m -53.879848,119.8076 c -0.876681,-0.61405 -1.442778,-1.87517 -1.245314,-2.77422 0.238501,-1.08588 1.540481,-2.10451 2.689923,-2.10451 1.182458,0 2.731366,1.42474 2.731366,2.51241 0,2.11399 -2.507573,3.53491 -4.175975,2.36632 z m 15.655748,-0.63717 c -0.895948,-0.36674 -1.69019,-1.57809 -1.69019,-2.5778 0,-1.28461 1.198237,-2.45751 2.510584,-2.45751 1.812885,0 2.759625,0.86394 2.772669,2.53019 0.0066,0.83714 -0.152567,1.2261 -0.719191,1.75804 -0.820713,0.77049 -2.041456,1.08782 -2.873872,0.74708 z m -29.894773,-5.93489 c -1.199161,-1.19916 -1.244534,-2.50034 -0.126185,-3.61869 0.881705,-0.88171 1.972169,-1.00905 3.200648,-0.37378 2.324013,1.20179 1.417281,4.89205 -1.202028,4.89205 -0.753602,0 -1.175589,-0.20274 -1.872435,-0.89958 z m 42.77115,-1.81689 c -0.355836,-0.18009 -0.878023,-0.72304 -1.160418,-1.20656 -0.442082,-0.75695 -0.471413,-1.01941 -0.21105,-1.88843 0.757745,-2.52913 4.236622,-2.64002 5.054732,-0.16111 0.40671,1.23233 -0.21006,2.58889 -1.443074,3.174 -1.053174,0.49976 -1.39047,0.51212 -2.24019,0.0821 z m -26.590107,-1.04657 c -0.979363,-1.39824 -0.123047,-3.11613 1.553295,-3.11613 0.970288,0 2.003578,0.95516 2.003578,1.85209 0,0.25179 -0.246766,0.77151 -0.54837,1.15494 -0.73147,0.92991 -2.391418,0.99011 -3.008503,0.1091 z m 11.215005,-0.42906 c -1.199951,-0.97167 -0.560099,-2.94614 1.08457,-3.3468 1.000847,-0.24382 2.105215,0.71273 2.105215,1.82344 0,1.68009 -1.88468,2.58017 -3.189785,1.52336 z m -20.767032,-3.60108 c -0.708425,-0.70843 -0.780463,-1.08816 -0.397515,-2.09538 0.50297,-1.32292 2.085194,-1.53266 3.194396,-0.42346 0.673817,0.67382 0.664163,1.59382 -0.02593,2.47113 -0.716851,0.91133 -1.887178,0.93148 -2.770947,0.0477 z m 30.454111,-1.79069 c -0.226531,-0.32342 -0.411877,-0.98002 -0.411877,-1.4591 0,-0.69889 0.169785,-0.97431 0.859009,-1.39345 0.906092,-0.55103 1.587463,-0.49222 2.382136,0.2056 0.635167,0.55775 0.598911,2.04076 -0.06614,2.70582 -0.741463,0.74146 -2.22468,0.70986 -2.763123,-0.0589 z m -46.091372,-2.56748 c -1.145255,-0.69833 -1.575422,-2.036993 -1.054894,-3.282789 0.46423,-1.11106 1.106831,-1.499195 2.482077,-1.499195 0.777981,0 1.191017,0.176006 1.70746,0.727604 0.929703,0.992984 1.097349,1.714849 0.648007,2.79027 -0.718466,1.71953 -2.215372,2.21978 -3.78265,1.26411 z m 65.079864,-3.62775 c -1.607399,-0.569566 -3.347138,-2.219412 -4.06636,-3.856244 -0.92927,-2.114878 -0.89153,-4.875181 0.0941,-6.882323 1.303848,-2.655168 3.735054,-4.174001 6.6813511,-4.174001 1.6931614,0 4.0270086,0.721501 4.3626776,1.348706 0.5807524,1.085143 -0.5425255,1.846146 -1.7865143,1.210334 -2.9048684,-1.484696 -6.5390154,-0.0649 -7.4279074,2.901966 -1.615456,5.391909 2.730537,9.583258 7.5525446,7.283802 0.8191924,-0.390645 0.8982155,-0.383093 1.416685,0.135374 0.786646,0.786646 0.3179789,1.478102 -1.3717402,2.023821 -1.6569399,0.535131 -3.9585874,0.538745 -5.4548324,0.0086 z M 91.885725,98.218095 c -1.435931,-0.710766 -2.558436,-2.225826 -2.928882,-3.953147 -0.364466,-1.699456 -0.371903,-9.36843 -0.0097,-10.045139 0.308091,-0.575673 1.430895,-0.691105 1.761013,-0.181044 0.117729,0.181901 0.273585,2.674728 0.346345,5.539618 l 0.132292,5.208887 0.771247,0.804267 c 1.636279,1.706337 3.860557,1.656281 5.421924,-0.122018 L 98.19821,94.53754 v -4.736071 c 0,-2.604836 0.116115,-5.041476 0.258035,-5.414751 0.295833,-0.7781 1.432457,-0.952248 1.698035,-0.260167 0.0883,0.230182 0.15798,2.641198 0.15479,5.357812 -0.006,5.446467 -0.2033,6.322201 -1.746767,7.769532 -1.707454,1.601103 -4.558162,2.012786 -6.676578,0.9642 z m 15.043735,0.01979 c -2.05762,-0.932839 -2.86162,-2.0374 -2.06375,-2.835267 0.47843,-0.478428 0.9791,-0.386686 1.83915,0.337 2.22747,1.874292 6.31002,1.194059 6.31002,-1.051375 0,-1.055658 -1.05505,-1.882992 -3.20807,-2.515653 -2.81253,-0.82646 -4.04795,-1.612895 -4.56544,-2.906236 -0.54726,-1.367735 -0.53312,-1.995247 0.0752,-3.334618 0.64972,-1.430637 1.97871,-2.235073 3.99446,-2.417855 3.37685,-0.306203 6.78767,1.752975 5.15207,3.110399 -0.33397,0.27717 -0.64318,0.204563 -1.78594,-0.419351 -2.40555,-1.313379 -5.16274,-0.898819 -5.59964,0.841936 -0.3249,1.2945 0.48824,1.974064 3.60948,3.016549 1.5338,0.512281 2.99054,1.098923 3.23722,1.303647 1.31992,1.095433 1.63219,3.80606 0.61205,5.312867 -1.369,2.022102 -4.96047,2.757676 -7.60677,1.557957 z M -0.48206529,98.012929 c -0.16709496,-0.312221 -0.27389138,-3.001338 -0.27389138,-6.89656 0,-3.895222 0.10679642,-6.584339 0.27389138,-6.89656 0.30615731,-0.572061 1.30378729,-0.680345 1.78985859,-0.194273 0.2287747,0.228774 0.3175,2.040231 0.3175,6.482291 v 6.164792 h 3.2941446 c 2.8433844,0 3.3290774,0.06242 3.5494409,0.456189 0.1619515,0.289394 0.1633564,0.627978 0.00384,0.926042 -0.2247186,0.419894 -0.699598,0.469852 -4.466172,0.469852 -3.89617476,0 -4.23541557,-0.03868 -4.48860859,-0.511773 z M 11.680042,98.128528 c -0.270872,-0.326379 0.179425,-1.619879 2.555984,-7.342187 2.639189,-6.354678 2.942277,-6.952784 3.560191,-7.025537 0.371477,-0.04373 0.795652,0.07533 0.942615,0.264583 0.14696,0.18926 1.499232,3.300648 3.005047,6.914201 2.871251,6.890229 2.966286,7.336827 1.604256,7.538958 -0.490032,0.07272 -0.712411,-0.205142 -1.428186,-1.784551 l -0.847781,-1.870687 -3.210417,-0.0013 -3.210414,-0.0013 -0.603155,1.521354 c -0.331737,0.836745 -0.71733,1.670182 -0.856877,1.852083 -0.345091,0.449829 -1.111157,0.416653 -1.511263,-0.06545 z m 8.466085,-5.309108 c 0,-0.312372 -2.193685,-5.418394 -2.287559,-5.32452 -0.167391,0.167392 -2.210358,5.025748 -2.210358,5.25643 0,0.119417 1.012031,0.217122 2.248958,0.217122 1.236927,0 2.248959,-0.06706 2.248959,-0.149032 z m 8.211391,5.193509 c -0.167095,-0.312221 -0.273891,-3.001338 -0.273891,-6.89656 0,-3.895222 0.106796,-6.584339 0.273891,-6.89656 0.306157,-0.572061 1.303787,-0.680345 1.789859,-0.194273 0.230407,0.230407 0.3175,2.175462 0.3175,7.090833 0,4.915371 -0.08709,6.860426 -0.3175,7.090833 -0.486072,0.486072 -1.483702,0.377788 -1.789859,-0.194273 z m 7.14375,0 c -0.167095,-0.312221 -0.273891,-3.001338 -0.273891,-6.89656 0,-3.895222 0.106796,-6.584339 0.273891,-6.89656 0.251479,-0.46989 0.58819,-0.511773 4.114181,-0.511773 4.218442,0 4.819862,0.1584 6.020924,1.585785 1.331995,1.582986 1.251982,3.763608 -0.200353,5.460333 l -0.896032,1.046814 0.627089,0.603549 c 0.344897,0.331954 0.69034,1.011356 0.767651,1.509786 0.07731,0.498428 0.203248,1.310987 0.279858,1.805689 0.07661,0.494699 0.314738,1.045059 0.529167,1.223021 0.505745,0.419732 0.501295,1.290957 -0.0076,1.486236 -1.34811,0.517318 -2.500691,-0.803458 -2.709362,-3.10474 -0.201825,-2.225739 -0.556742,-2.466676 -3.799483,-2.579288 l -2.618687,-0.09094 v 2.617709 c 0,1.683221 -0.113345,2.731055 -0.3175,2.93521 -0.486072,0.486072 -1.483702,0.377788 -1.789859,-0.194273 z m 7.948544,-7.934542 c 0.623916,-0.623914 0.773398,-1.001789 0.773398,-1.955061 0,-0.768668 -0.176615,-1.399977 -0.50533,-1.806292 -0.46345,-0.572858 -0.737545,-0.6321 -3.307292,-0.714852 l -2.801961,-0.09023 v 2.669918 2.669916 h 2.533893 c 2.447843,0 2.560161,-0.02627 3.307292,-0.773399 z m 8.194434,7.940882 c -0.421799,-0.788136 -0.372316,-13.28638 0.05491,-13.870652 0.294679,-0.403 0.825095,-0.446064 4.696354,-0.381299 l 4.364156,0.07301 v 0.79375 0.79375 l -3.505729,0.07383 -3.505729,0.07382 v 2.24128 2.241278 h 2.878021 c 2.303156,0 2.947485,0.0837 3.225803,0.419052 0.252037,0.303689 0.271396,0.540419 0.07032,0.859896 -0.226779,0.36032 -0.815996,0.454509 -3.225802,0.515654 l -2.948345,0.07481 v 2.364907 2.364904 l 3.505729,0.07382 3.505729,0.07383 v 0.79375 0.79375 l -4.419068,0.07249 c -4.156763,0.06818 -4.435528,0.04173 -4.696354,-0.445627 z m 21.692439,-0.0063 c -0.167095,-0.312211 -0.273892,-3.001328 -0.273892,-6.89655 0,-3.895222 0.106797,-6.584339 0.273892,-6.89656 0.25111,-0.469205 0.586732,-0.511691 4.034896,-0.510784 4.192878,0.0011 5.060754,0.271352 5.864825,1.826255 0.755883,1.461714 0.324988,3.83509 -0.811768,4.471252 -0.361717,0.202427 -0.254336,0.401145 0.695598,1.287232 0.969655,0.904484 1.140864,1.230122 1.25136,2.380078 0.190621,1.983827 -0.574379,3.544096 -2.099705,4.282496 -1.03148,0.499332 -1.628783,0.568364 -4.917699,0.568364 -3.430413,0 -3.766529,-0.04282 -4.017507,-0.511773 z m 7.365129,-1.632723 c 1.00257,-0.349488 1.356813,-0.929388 1.356813,-2.221119 0,-1.995961 -0.907087,-2.513541 -4.405106,-2.513541 h -2.209478 v 2.513541 2.513542 h 2.209478 c 1.21521,0 2.586942,-0.131585 3.048293,-0.292412 z M 80.290083,89.48925 c 0.796957,-0.419486 0.966052,-0.737915 0.970743,-1.828051 0.0073,-1.692248 -0.414017,-1.956774 -3.281635,-2.060485 l -2.535148,-0.09167 v 2.142206 2.142207 h 2.134061 c 1.173734,0 2.394124,-0.136887 2.711979,-0.304191 z m 39.613267,8.523669 c -0.16709,-0.312211 -0.27389,-3.001328 -0.27389,-6.89655 0,-3.895222 0.1068,-6.584339 0.27389,-6.89656 0.30616,-0.572061 1.30379,-0.680345 1.78986,-0.194273 0.20775,0.207748 0.3175,1.305277 0.3175,3.175 v 2.8575 h 3.6955 3.6955 l 0.0748,-2.948345 c 0.0626,-2.468671 0.15014,-2.995761 0.53784,-3.239791 0.33724,-0.212278 0.58879,-0.212111 0.92604,5.29e-4 0.42182,0.266076 0.46302,0.910852 0.46302,7.245853 0,6.335 -0.0412,6.979777 -0.46302,7.245852 -0.33728,0.212747 -0.58877,0.212905 -0.92604,5.3e-4 -0.39004,-0.245544 -0.47478,-0.77705 -0.53757,-3.372086 l -0.0745,-3.080459 h -3.69577 -3.69577 v 2.989792 c 0,1.972617 -0.10802,3.09781 -0.3175,3.307291 -0.48607,0.486072 -1.4837,0.377788 -1.78986,-0.194273 z m 16.66875,0 c -0.16709,-0.312211 -0.27389,-3.001328 -0.27389,-6.89655 0,-3.895222 0.1068,-6.584339 0.27389,-6.89656 0.15654,-0.292505 0.55204,-0.511773 0.92308,-0.511773 0.54545,0 1.06754,0.640625 3.26702,4.008723 l 2.61783,4.008721 2.68103,-4.008721 c 1.47457,-2.204799 2.84799,-4.008723 3.05203,-4.008723 1.2216,0 1.20804,-0.08031 1.20804,7.150417 0,3.75607 -0.0723,7.017552 -0.1606,7.247734 -0.19509,0.508389 -1.25141,0.551897 -1.65294,0.06808 -0.18166,-0.218889 -0.31797,-2.166538 -0.36313,-5.188545 l -0.0723,-4.838113 -2.11667,3.138022 c -1.52177,2.256081 -2.26539,3.138025 -2.64583,3.138025 -0.38468,0 -1.12443,-0.903063 -2.70919,-3.307292 l -2.18003,-3.307292 -0.003,4.939298 c -0.002,2.716614 -0.0751,5.12763 -0.16339,5.357812 -0.22496,0.586221 -1.35197,0.52374 -1.68218,-0.09326 z m 17.98294,0.115599 c -0.27087,-0.32638 0.17943,-1.61988 2.55599,-7.342188 2.63919,-6.354677 2.94227,-6.952784 3.5602,-7.025536 0.37147,-0.04374 0.79563,0.07533 0.9426,0.264583 0.14695,0.189259 1.49924,3.300648 3.00504,6.9142 2.87125,6.890229 2.96629,7.336827 1.60427,7.538958 -0.49003,0.07272 -0.71242,-0.205142 -1.42819,-1.784551 l -0.84778,-1.870686 -3.21043,-0.0013 -3.2104,-0.0013 -0.60316,1.521354 c -0.33174,0.836745 -0.71733,1.670183 -0.85687,1.852084 -0.3451,0.449828 -1.11116,0.416652 -1.51127,-0.06544 z m 8.46609,-5.309098 c 0,-0.312372 -2.19369,-5.418394 -2.28756,-5.32452 -0.16741,0.167392 -2.21036,5.025748 -2.21036,5.25643 0,0.119417 1.01203,0.217122 2.24896,0.217122 1.23693,0 2.24896,-0.06706 2.24896,-0.149032 z m 8.21139,5.193509 c -0.16711,-0.312221 -0.27389,-3.001338 -0.27389,-6.89656 0,-3.895222 0.10678,-6.584339 0.27389,-6.89656 0.1532,-0.286245 0.55182,-0.511773 0.90459,-0.511773 0.51067,0 1.42782,1.051404 4.81933,5.524793 l 4.18864,5.524794 0.1323,-5.458648 0.13229,-5.458648 0.63153,-0.08929 c 0.34735,-0.04911 0.73247,0.06995 0.85585,0.264583 0.36923,0.582512 0.28988,13.816616 -0.0851,14.191586 -0.83555,0.835557 -1.37557,0.346477 -5.50333,-4.984369 l -4.10105,-5.29632 -0.0721,4.948496 c -0.0453,3.104137 -0.1806,5.079167 -0.36314,5.299094 -0.42489,0.511993 -1.22428,0.428318 -1.53977,-0.161174 z M -68.44317,97.647754 c -0.814033,-0.8665 -0.759879,-2.114444 0.121853,-2.808015 0.383427,-0.301604 0.90315,-0.54837 1.154944,-0.54837 0.88742,0 1.852083,1.033568 1.852083,1.984375 0,0.643789 -0.191513,1.038281 -0.69714,1.436005 -0.90977,0.715624 -1.719339,0.694319 -2.43174,-0.06399 z M -79.4991,87.682059 c -0.810294,-0.327396 -1.690346,-1.554872 -1.689201,-2.356059 0.0016,-1.087771 0.904177,-2.320126 1.952835,-2.666214 0.7724,-0.254916 1.094009,-0.234286 1.835901,0.117766 3.035456,1.440418 1.014008,6.162519 -2.099535,4.904507 z m 8.638868,-1.113496 c -1.573022,-1.688439 0.644554,-4.275294 2.448539,-2.856278 0.831215,0.653833 0.964838,1.904211 0.304276,2.847295 -0.557596,0.796081 -2.015093,0.800835 -2.752815,0.009 z m 3.814125,-9.85996 c -0.357187,-0.357188 -0.649433,-0.957911 -0.649433,-1.334942 0,-0.88215 1.102225,-1.984375 1.984375,-1.984375 0.88215,0 1.984375,1.102225 1.984375,1.984375 0,0.88215 -1.102225,1.984375 -1.984375,1.984375 -0.377031,0 -0.977754,-0.292246 -1.334942,-0.649433 z m 37.820468,-2.397311 c -0.947984,-1.446805 -0.219335,-3.038673 1.390898,-3.038673 1.112798,0 1.943368,0.791557 1.943368,1.852083 0,1.734048 -2.412913,2.59275 -3.334266,1.18659 z M -75.339334,73.28464 c -0.708242,-0.392549 -1.328486,-1.364644 -1.342662,-2.104326 -0.0052,-0.26905 0.174955,-0.877631 0.400248,-1.352402 1.185579,-2.498426 4.882041,-1.604888 4.882041,1.180124 0,2.074264 -2.107448,3.292104 -3.939627,2.276604 z m 52.690779,-2.803384 c -0.722226,-0.302546 -1.652977,-1.762652 -1.654329,-2.595214 -0.0024,-1.477814 1.271649,-2.69884 2.816043,-2.69884 1.057587,0 2.474634,1.573295 2.474634,2.747492 0,1.77804 -2.0477,3.21206 -3.636348,2.546562 z m -36.7157,-1.593303 c -0.682736,-0.754414 -0.623105,-2.081435 0.120597,-2.683647 1.301639,-1.054005 3.189785,-0.246518 3.189785,1.364146 0,1.641528 -2.218637,2.525866 -3.310382,1.319501 z M -37.174,68.097381 c -0.688049,-0.274669 -1.417373,-1.264036 -1.417373,-1.922743 0,-0.747165 1.195019,-1.781186 2.058519,-1.781186 0.937085,0 1.910231,0.970976 1.910231,1.905971 0,1.297358 -1.37613,2.267117 -2.551377,1.797958 z m -11.652682,-2.649908 c -1.223743,-0.487836 -1.513805,-2.199775 -0.52941,-3.124568 1.010724,-0.949526 2.334017,-0.726522 2.9684,0.50024 0.798902,1.544902 -0.808405,3.274348 -2.43899,2.624328 z M -65.15848,62.256484 c -1.331904,-1.582878 -0.462893,-3.982537 1.581098,-4.36599 1.559935,-0.292648 3.002912,0.937601 3.017178,2.572372 0.01297,1.484357 -1.158772,2.60767 -2.720054,2.60767 -1.007626,0 -1.299795,-0.12663 -1.878222,-0.814052 z m 30.079937,-1.281758 c -1.644184,-1.028795 -1.583856,-3.722076 0.100563,-4.489548 0.842936,-0.384069 2.232927,-0.361143 2.748748,0.04533 1.442794,1.136954 1.67481,2.688275 0.583171,3.899204 -0.957786,1.062448 -2.272032,1.271125 -3.432482,0.54501 z m -14.52264,-2.396834 c -1.722115,-0.695812 -2.210615,-2.965138 -0.916792,-4.258958 1.668354,-1.668357 4.525886,-0.537387 4.512384,1.785937 -0.01135,1.954197 -1.81292,3.193302 -3.595592,2.473021 z"
         id="path31"
         inkscape:connector-curvature="0" />
      <path
         style="fill:#85acc2;stroke-width:0.26458332"
         d="m -53.585644,119.83484 c -1.002226,-0.43597 -1.409896,-1.11239 -1.409896,-2.33935 0,-2.48998 3.298206,-3.44602 4.669287,-1.35349 0.755563,1.15314 0.606518,2.43041 -0.387212,3.31831 -0.937162,0.83735 -1.607304,0.92474 -2.872179,0.37453 z m 14.642915,-1.21327 c -1.860992,-1.46386 -0.681064,-4.46638 1.76077,-4.48057 1.390885,-0.008 2.559336,1.13678 2.559336,2.50766 0,2.09682 -2.633586,3.29953 -4.320106,1.97291 z m -28.223644,-4.67331 c -2.184662,-0.79861 -2.357385,-3.97336 -0.263359,-4.84073 1.635586,-0.67748 3.702942,0.63117 3.702942,2.34398 0,1.77557 -1.812779,3.09144 -3.439583,2.49675 z m 41.130683,-3.10841 c -0.495221,-0.49522 -0.649433,-0.92942 -0.649433,-1.82856 0,-0.99187 0.12928,-1.28791 0.814051,-1.86411 1.790851,-1.5069 4.213032,-0.49776 4.213032,1.75526 0,2.24447 -2.821768,3.4933 -4.37765,1.93741 z m -25.78485,-0.4089 c -0.715097,-0.71509 -0.666343,-1.73896 0.120266,-2.52556 1.260401,-1.26041 3.054734,-0.48508 3.054734,1.31994 0,1.58052 -2.029465,2.35116 -3.175,1.20562 z m 11.509375,-0.31616 c -0.711226,-0.40331 -0.917173,-0.74802 -0.921991,-1.54319 -0.0066,-1.09819 0.693804,-1.84481 1.730743,-1.84481 1.805016,0 2.580344,1.79433 1.31994,3.05473 -0.705937,0.70594 -1.305867,0.79986 -2.128692,0.33327 z m -20.69573,-3.39332 c -0.580223,-0.23347 -1.051657,-1.34091 -0.898794,-2.11135 0.28362,-1.42948 2.25997,-1.80402 3.201733,-0.60676 0.658934,0.83769 0.542944,1.81093 -0.300929,2.52499 -0.598437,0.50638 -1.102627,0.55501 -2.00201,0.19312 z m 30.098746,-2.16124 c -1.149569,-1.23392 -0.278013,-3.12511 1.440204,-3.12511 1.618787,0 2.325683,1.9888 1.112123,3.12888 -0.783918,0.73645 -1.864193,0.73486 -2.552326,-0.004 z m -45.890463,-2.47091 c -1.07602,-0.56114 -1.462095,-1.16118 -1.471848,-2.287545 -0.01267,-1.463845 1.043382,-2.599989 2.41671,-2.599989 2.696128,0 3.65819,3.664484 1.28434,4.892054 -0.96344,0.49821 -1.266359,0.4976 -2.229202,-0.005 z m 65.591614,-3.532661 c -3.377597,-0.892456 -5.420011,-3.542184 -5.482135,-7.112257 -0.0693,-3.982606 2.045168,-6.880114 5.652283,-7.745449 2.4733117,-0.593337 6.04756,0.281302 6.04756,1.479872 0,0.882724 -0.7351078,1.21896 -1.6409141,0.750546 -1.8431986,-0.953153 -4.5135429,-0.680307 -6.0576219,0.618948 -1.218555,1.025345 -1.814843,2.526234 -1.814843,4.56805 0,2.859154 1.34321,4.908222 3.634615,5.544606 1.3640225,0.378827 2.1644109,0.345342 3.7148957,-0.155409 1.5653199,-0.505542 2.1638683,-0.359796 2.1638683,0.526897 0,0.506227 -0.2364687,0.736939 -1.1244792,1.097092 -1.2779586,0.518308 -3.9120758,0.739198 -5.0932288,0.427104 z M 92.545985,98.41784 c -1.313384,-0.488924 -2.487345,-1.598364 -3.106579,-2.935846 -0.423741,-0.915236 -0.490778,-1.762458 -0.495802,-6.266024 -0.0054,-4.846606 0.0283,-5.218517 0.486081,-5.363813 0.673228,-0.213672 1.354278,0.0864 1.388542,0.611791 0.01558,0.23909 0.05464,2.530631 0.08676,5.092311 0.05357,4.271983 0.106336,4.735144 0.637278,5.594228 1.036373,1.676884 3.068707,2.223759 4.80799,1.29377 1.763676,-0.94303 1.963928,-1.648717 2.112539,-7.444555 0.127709,-4.980672 0.151421,-5.162108 0.684612,-5.238289 1.106664,-0.158118 1.213634,0.396758 1.121734,5.819161 -0.0826,4.875921 -0.11657,5.161158 -0.748012,6.286548 -1.346245,2.399326 -4.390922,3.512727 -6.975143,2.550718 z m 14.971325,-0.01741 c -2.39618,-0.748241 -3.63542,-2.363991 -2.40461,-3.135193 0.33124,-0.20755 0.7264,-0.07594 1.69168,0.563435 1.42216,0.941999 2.61848,1.245661 3.9347,0.998739 2.23904,-0.420047 3.0425,-2.373022 1.5076,-3.664553 -0.4225,-0.355516 -1.5701,-0.847826 -2.55021,-1.094021 -3.00637,-0.755176 -4.28031,-1.729375 -4.60061,-3.518146 -0.63433,-3.542474 2.82188,-5.968918 6.89181,-4.838406 1.48678,0.412988 2.747,1.373693 2.747,2.094129 0,1.051764 -0.68419,1.224812 -1.81324,0.458613 -2.4625,-1.671105 -5.99197,-0.875334 -5.99197,1.350973 0,0.943481 1.1594,1.810634 3.11865,2.33253 2.47239,0.658588 3.27497,1.019037 4.09509,1.839156 0.79083,0.790831 1.12798,2.06984 0.90608,3.437276 -0.44577,2.746962 -4.0449,4.264348 -7.53197,3.17546 z M -0.16064417,98.349474 c -0.25303956,-0.102105 -0.33072916,-1.799693 -0.33072916,-7.226845 0,-6.331834 0.0466116,-7.11128 0.4341495,-7.259995 0.66559112,-0.25541 1.34364943,0.06354 1.51804423,0.71406 0.086487,0.322602 0.1588743,3.176159 0.1608614,6.341237 l 0.00361,5.754688 h 3.0210681 c 3.464896,0 3.8580986,0.09438 3.8580986,0.926042 0,0.332663 -0.1883304,0.677113 -0.4185153,0.765442 -0.4974378,0.190886 -7.76924085,0.177985 -8.24658887,-0.01463 z M 11.724664,98.077736 c -0.196575,-0.369046 0.369287,-1.983218 2.463784,-7.028166 1.495433,-3.601998 2.871714,-6.733136 3.058401,-6.958079 0.186687,-0.224946 0.583845,-0.373481 0.882571,-0.330078 0.544012,0.07904 1.478854,2.082964 5.190987,11.127369 1.069319,2.605336 1.132515,2.882101 0.746278,3.268337 -0.728535,0.728536 -1.408604,0.223748 -2.196671,-1.630497 l -0.731605,-1.721403 -3.293038,0.07381 -3.293039,0.0738 -0.716034,1.719792 c -0.531569,1.276739 -0.86293,1.740969 -1.286242,1.801992 -0.34235,0.04936 -0.672182,-0.109238 -0.825392,-0.396875 z m 7.406825,-8.00708 c -0.668507,-1.593789 -1.243155,-2.870104 -1.277001,-2.836259 -0.03384,0.03385 -0.596267,1.337855 -1.249825,2.897796 l -1.188286,2.836259 h 2.465287 2.465287 z m 9.54745,8.278818 C 28.42586,98.247355 28.34821,96.545127 28.34821,91.099362 V 83.9827 l 0.680831,-0.170876 c 1.255199,-0.315037 1.303544,-0.04328 1.303544,7.327424 0,5.823743 -0.06071,6.913969 -0.396875,7.12647 -0.429313,0.271388 -0.740394,0.292118 -1.256771,0.08376 z m 7.130521,-0.142272 c -0.230783,-0.230782 -0.3175,-2.210329 -0.3175,-7.247734 0,-6.075391 0.05162,-6.950043 0.418515,-7.090833 0.230182,-0.08833 1.96836,-0.160599 3.862618,-0.160599 2.632676,0 3.657809,0.101409 4.351181,0.430437 2.623294,1.244833 3.195416,4.71587 1.119476,6.791809 l -0.783799,0.783802 0.525463,0.561038 c 0.679262,0.72525 1.089879,1.826816 1.089879,2.923831 0,0.495083 0.248389,1.188913 0.57367,1.602441 0.43235,0.549643 0.506838,0.835443 0.302371,1.160161 -1.004517,1.595292 -2.986466,-0.60466 -2.991231,-3.320253 -0.0011,-0.591974 -0.207727,-1.002927 -0.698616,-1.389063 -0.592561,-0.466108 -1.068846,-0.54837 -3.175,-0.54837 h -2.47786 v 2.231734 c 0,1.227455 -0.116115,2.537142 -0.258035,2.910417 -0.274688,0.722481 -1.007978,0.894336 -1.541132,0.361182 z m 7.580199,-7.974507 c 0.876138,-0.932606 1.152022,-2.179352 0.714152,-3.227321 -0.515739,-1.234334 -1.094279,-1.445255 -3.964249,-1.445255 h -2.530935 v 2.645833 2.645834 h 2.599713 c 2.383486,0 2.648085,-0.05149 3.181319,-0.619091 z m 8.572613,8.116779 c -0.253039,-0.102105 -0.330729,-1.799693 -0.330729,-7.226845 0,-6.224172 0.05129,-7.113074 0.418516,-7.253994 0.230182,-0.08833 2.170901,-0.160599 4.312708,-0.160599 3.997166,0 4.529193,0.127209 4.529193,1.082942 0,0.666983 -0.530003,0.769141 -3.99039,0.769141 h -3.15336 v 2.240293 2.240293 l 2.976562,0.07481 2.976563,0.07481 v 0.79375 0.79375 l -2.976563,0.07481 -2.976562,0.07481 v 2.364679 2.364682 l 3.345114,0.07405 c 2.781236,0.06157 3.391903,0.148363 3.622678,0.514895 0.201197,0.319551 0.181877,0.556138 -0.07022,0.859896 -0.290788,0.350377 -1.003726,0.415629 -4.350282,0.398163 -2.201376,-0.01148 -4.151328,-0.08094 -4.33323,-0.154339 z m 21.695834,0 C 73.405027,98.247355 73.327377,96.545127 73.327377,91.099362 V 83.9827 l 0.63319,-0.15892 c 0.348252,-0.08741 2.185471,-0.119441 4.082703,-0.07119 3.002325,0.07636 3.546219,0.159441 4.195459,0.640869 1.615794,1.198155 1.803868,3.937455 0.363667,5.296775 l -0.760238,0.717542 0.83584,0.558007 c 1.249868,0.834411 1.822691,2.125242 1.650225,3.718705 -0.176496,1.630704 -0.76852,2.475124 -2.275002,3.244898 -1.04022,0.531524 -1.534681,0.593074 -4.614719,0.574423 -1.897317,-0.01148 -3.598495,-0.08094 -3.780396,-0.154339 z m 7.176585,-1.928773 c 1.356989,-0.515927 1.798052,-2.995192 0.724106,-4.070278 -0.49938,-0.499909 -0.923795,-0.584049 -3.343373,-0.662824 l -2.771381,-0.09023 v 2.537627 2.537624 h 2.364026 c 1.300215,0 2.662192,-0.113363 3.026622,-0.251919 z m -0.06816,-7.128168 c 0.471292,-0.38163 0.618612,-0.766411 0.618612,-1.615747 0,-1.725232 -0.663744,-2.116667 -3.58916,-2.116667 h -2.35194 v 2.116667 2.116666 h 2.35194 c 1.913509,0 2.467253,-0.09338 2.970548,-0.500919 z m 39.458239,9.056941 c -0.25308,-0.102119 -0.33073,-1.804347 -0.33073,-7.250112 V 83.9827 l 0.68083,-0.170876 c 1.0966,-0.27523 1.29593,0.203851 1.3931,3.348355 l 0.0896,2.897857 h 3.67209 3.67209 l 0.0748,-2.948345 c 0.0626,-2.468671 0.15014,-2.995761 0.53784,-3.239791 0.33724,-0.212278 0.58879,-0.212111 0.92604,5.29e-4 0.42182,0.266076 0.46302,0.910852 0.46302,7.245853 0,6.335 -0.0412,6.979777 -0.46302,7.245852 -0.33728,0.212747 -0.58877,0.212905 -0.92604,5.3e-4 -0.39004,-0.245544 -0.47478,-0.77705 -0.53757,-3.372086 l -0.0745,-3.080459 h -3.673 -3.673 l -0.0889,3.052829 c -0.0686,2.3549 -0.17965,3.110079 -0.48579,3.303241 -0.42941,0.270938 -0.7406,0.291562 -1.25677,0.08329 z m 16.51441,-0.0011 c -0.097,-0.09712 -0.17639,-3.358597 -0.17639,-7.247837 0,-6.31139 0.0467,-7.089249 0.43415,-7.237945 0.23878,-0.09163 0.62574,-0.105156 0.8599,-0.03006 0.23416,0.0751 1.54126,1.863736 2.90466,3.974751 1.36341,2.111015 2.55403,3.835686 2.64584,3.832598 0.0918,-0.0031 1.34489,-1.789025 2.78463,-3.96875 2.60221,-3.939654 3.1377,-4.442084 3.83671,-3.599836 0.21263,0.256198 0.28068,2.373286 0.23084,7.181223 -0.0639,6.159582 -0.11539,6.846101 -0.53371,7.109822 -0.33732,0.212662 -0.58871,0.212746 -0.92604,2.65e-4 -0.40596,-0.255657 -0.47932,-0.904238 -0.59531,-5.263298 l -0.13229,-4.971712 -2.05179,3.081841 c -2.72054,4.086314 -2.67609,4.087357 -5.39958,-0.126709 l -2.07363,-3.208491 -0.0722,4.974611 c -0.0453,3.123176 -0.18044,5.105098 -0.36312,5.325213 -0.30844,0.371647 -1.07765,0.469268 -1.37271,0.17421 z m 17.86048,-0.270576 c -0.19657,-0.369047 0.36929,-1.983219 2.46379,-7.028167 1.49543,-3.601998 2.87171,-6.733135 3.0584,-6.958079 0.18669,-0.224946 0.58385,-0.37348 0.88257,-0.330078 0.54401,0.07904 1.47886,2.082964 5.19099,11.127369 1.06932,2.605337 1.1325,2.882101 0.74629,3.268338 -0.72856,0.728535 -1.40862,0.223747 -2.19668,-1.630498 l -0.7316,-1.721403 -3.29306,0.07381 -3.29303,0.0738 -0.71603,1.719791 c -0.53157,1.276739 -0.86293,1.740969 -1.28624,1.801993 -0.34235,0.04935 -0.67219,-0.109239 -0.8254,-0.396875 z m 7.40682,-8.007081 c -0.6685,-1.593789 -1.24315,-2.870104 -1.27699,-2.836259 -0.0338,0.03385 -0.59626,1.337855 -1.24984,2.897796 l -1.18827,2.836156 h 2.46528 2.46529 l -1.21547,-2.897796 z m 9.39313,8.277657 c -0.097,-0.09712 -0.1764,-3.358597 -0.1764,-7.247837 0,-6.31139 0.0466,-7.089249 0.43415,-7.237945 0.23879,-0.09163 0.62574,-0.100658 0.8599,-0.02005 0.23416,0.08059 2.27121,2.582868 4.52678,5.560608 l 4.10104,5.414076 0.1323,-5.327761 c 0.11403,-4.592262 0.19314,-5.366092 0.57314,-5.605413 0.31961,-0.2013 0.55607,-0.182014 0.85989,0.07013 0.36251,0.300847 0.41905,1.267428 0.41905,7.162157 0,7.21319 -0.0633,7.587803 -1.24397,7.360433 -0.26159,-0.05038 -2.32113,-2.456437 -4.57676,-5.346795 l -4.10115,-5.255207 -0.13229,4.994219 c -0.0728,2.74682 -0.22862,5.143045 -0.34634,5.324946 -0.22841,0.352925 -1.0369,0.446791 -1.32934,0.15434 z M -67.900738,97.965828 c -1.120174,-0.41438 -1.442799,-1.891358 -0.631888,-2.89279 0.643181,-0.794298 2.100305,-0.780738 2.753254,0.02561 1.222142,1.509284 -0.285112,3.54644 -2.121366,2.867168 z m -11.64481,-10.429396 c -1.000992,-0.427527 -1.745818,-1.874261 -1.489894,-2.893938 0.492179,-1.960999 3.035313,-2.724338 4.364095,-1.309915 0.909053,0.967644 0.8992,2.761594 -0.02003,3.645183 -0.869376,0.835673 -1.785678,1.015029 -2.854174,0.55867 z m 8.795274,-1.038143 c -1.260403,-1.260504 -0.485076,-3.054837 1.31994,-3.054837 1.628778,0 2.340653,1.984418 1.122429,3.128881 -0.802262,0.753684 -1.639972,0.728252 -2.442369,-0.07415 z m 4.332095,-9.440807 c -0.814965,-0.298407 -1.30429,-1.417164 -0.990666,-2.264976 0.840909,-2.273194 4.191788,-1.092221 3.394045,1.196187 -0.206528,0.592447 -1.293156,1.484521 -1.642668,1.348557 -0.02953,-0.01148 -0.371853,-0.137385 -0.760711,-0.279768 z m 37.351806,-2.609863 c -1.137314,-1.137314 -0.300604,-3.175 1.303713,-3.175 0.836533,0 1.871287,1.024136 1.871287,1.852083 0,0.251794 -0.246767,0.771517 -0.54837,1.154944 -0.67092,0.852937 -1.865287,0.929317 -2.62663,0.167973 z m -46.587011,-1.528601 c -1.982883,-1.771706 -0.329126,-4.92945 2.321229,-4.432239 2.221802,0.416814 2.617108,3.732056 0.571159,4.790059 -1.096724,0.567137 -1.97939,0.457941 -2.892388,-0.35782 z m 52.606276,-2.725928 c -0.757295,-0.441084 -1.321993,-1.797119 -1.143839,-2.746756 0.383789,-2.045769 2.863729,-2.842324 4.318845,-1.387211 0.581181,0.581182 0.727604,0.970609 0.727604,1.935126 0,0.995 -0.130654,1.319903 -0.742358,1.846069 -0.793337,0.6824 -2.304666,0.851104 -3.160252,0.352772 z m -36.181765,-1.301721 c -1.131922,-1.131922 -0.260893,-3.175 1.353603,-3.175 0.786349,0 1.821397,1.052483 1.821397,1.852083 0,0.251794 -0.246767,0.771517 -0.54837,1.154944 -0.67092,0.852937 -1.865287,0.929317 -2.62663,0.167973 z m 21.43125,-1.322917 c -1.023388,-1.023387 -0.519057,-2.703652 0.9199,-3.064809 1.765639,-0.443148 2.901929,1.851017 1.574345,3.178599 -0.57749,0.57749 -1.861545,0.518911 -2.494245,-0.11379 z M -49.43929,64.922619 c -0.715097,-0.715097 -0.666343,-1.738961 0.120266,-2.525567 0.718431,-0.718434 1.214499,-0.800775 2.07994,-0.345242 0.752007,0.395828 0.965793,0.738323 0.970743,1.555166 0.01021,1.68466 -1.977302,2.50929 -3.170949,1.315643 z m -15.529518,-2.490634 c -0.616423,-0.530225 -0.742357,-0.848299 -0.742357,-1.874991 0,-1.632884 0.923938,-2.513542 2.637068,-2.513542 0.961966,0 1.26552,0.134493 1.83733,0.814052 0.792075,0.941329 0.867783,1.837544 0.244374,2.892893 -0.84097,1.423649 -2.736074,1.748483 -3.976415,0.681588 z m 30.448875,-1.202563 c -0.897602,-0.371822 -1.69019,-1.581931 -1.69019,-2.580545 0,-1.265412 1.199557,-2.457508 2.472888,-2.457508 1.066797,0 2.410455,0.978776 2.64913,1.929733 0.47806,1.904738 -1.660787,3.841962 -3.431828,3.10832 z m -15.998042,-3.430201 c -0.462209,-0.462206 -0.773398,-1.053021 -0.773398,-1.468348 0,-2.43124 2.836087,-3.694123 4.518268,-2.011939 1.646719,1.646716 0.499152,4.253685 -1.872435,4.253685 -0.861949,0 -1.26588,-0.166841 -1.872435,-0.773398 z"
         id="path29"
         inkscape:connector-curvature="0" />
      <path
         style="fill:#4cb4d1;stroke-width:0.26458332"
         d="m -53.585644,119.83484 c -1.002226,-0.43597 -1.409896,-1.11239 -1.409896,-2.33935 0,-2.48998 3.298206,-3.44602 4.669287,-1.35349 0.755563,1.15314 0.606518,2.43041 -0.387212,3.31831 -0.937162,0.83735 -1.607304,0.92474 -2.872179,0.37453 z m 14.642915,-1.21327 c -1.860992,-1.46386 -0.681064,-4.46638 1.76077,-4.48057 1.390885,-0.008 2.559336,1.13678 2.559336,2.50766 0,2.09682 -2.633586,3.29953 -4.320106,1.97291 z m -28.223644,-4.67331 c -2.184662,-0.79861 -2.357385,-3.97336 -0.263359,-4.84073 1.635586,-0.67748 3.702942,0.63117 3.702942,2.34398 0,1.77557 -1.812779,3.09144 -3.439583,2.49675 z m 41.130683,-3.10841 c -0.495221,-0.49522 -0.649433,-0.92942 -0.649433,-1.82856 0,-0.99187 0.12928,-1.28791 0.814051,-1.86411 1.790851,-1.5069 4.213032,-0.49776 4.213032,1.75526 0,2.24447 -2.821768,3.4933 -4.37765,1.93741 z m -25.765647,-0.57687 c -0.720135,-0.9155 -0.692327,-1.56421 0.101063,-2.35759 0.718431,-0.71844 1.214499,-0.80078 2.07994,-0.34525 0.783138,0.41222 0.965981,0.73832 0.970743,1.73133 0.0078,1.62357 -2.12235,2.28018 -3.151746,0.97151 z m 11.26127,-0.3804 c -1.345001,-1.05797 -0.577249,-3.15579 1.154944,-3.15579 1.689526,0 2.41491,1.84247 1.20265,3.05473 -0.793388,0.79339 -1.442093,0.8212 -2.357594,0.10106 z m -20.6375,-3.43958 c -1.379037,-1.08475 -0.677735,-3.1558 1.068623,-3.1558 1.611337,0 2.387328,2.22195 1.131216,3.23909 -0.752949,0.6097 -1.34746,0.58719 -2.199839,-0.0833 z m 30.269418,-1.88277 c -1.594032,-1.71099 0.982573,-4.2489 2.635526,-2.59594 0.715097,0.71509 0.666342,1.73896 -0.120267,2.52556 -0.804449,0.80446 -1.805276,0.83246 -2.515259,0.0704 z m -45.890463,-2.47091 c -1.07602,-0.56114 -1.462095,-1.16118 -1.471848,-2.287545 -0.01267,-1.463845 1.043382,-2.599989 2.41671,-2.599989 2.696128,0 3.65819,3.664484 1.28434,4.892054 -0.96344,0.49821 -1.266359,0.4976 -2.229202,-0.005 z m 65.591614,-3.584014 c -2.337348,-0.573143 -4.553805,-2.764798 -5.195644,-5.13751 -0.380971,-1.408351 -0.15987,-4.551487 0.395427,-5.621293 1.364959,-2.629659 3.756023,-4.114392 6.6523,-4.130754 2.2740673,-0.01283 4.365625,0.788784 4.365625,1.673212 0,0.798227 -0.6848052,0.943824 -2.0827524,0.442817 -1.4862386,-0.532649 -3.1906816,-0.561512 -4.3579516,-0.0738 -1.33186,0.556488 -2.748288,2.384639 -3.077959,3.972658 -0.284861,1.372164 -0.04364,3.61184 0.495615,4.601702 0.415086,0.761934 1.96642,2.126208 2.756418,2.424049 1.090737,0.411223 3.2630456,0.342577 4.1810095,-0.13212 1.0745153,-0.555654 1.9307943,-0.407326 2.0387125,0.353153 0.069429,0.489275 -0.1321911,0.697923 -1.0792486,1.116851 -1.4295279,0.632349 -3.676912,0.857914 -5.0915514,0.51103 z M 92.8428,98.427934 c -1.501489,-0.558843 -2.246757,-1.130671 -3.045608,-2.336832 -0.723958,-1.093079 -0.727475,-1.120921 -0.812202,-6.427743 -0.07509,-4.703455 -0.03361,-5.372637 0.352909,-5.69342 0.319344,-0.265033 0.557427,-0.288383 0.878843,-0.0862 0.378777,0.23827 0.459467,0.999739 0.573135,5.408615 0.124751,4.838864 0.167407,5.180536 0.748464,5.995191 1.696913,2.379112 5.155443,2.1263 6.461021,-0.472286 0.389494,-0.775243 0.462675,-1.678813 0.463021,-5.717019 5.29e-4,-5.008004 0.137311,-5.625658 1.159783,-5.233297 0.665974,0.255556 0.752694,1.051597 0.652914,5.993066 -0.0868,4.29854 -0.13418,4.661996 -0.768442,5.893898 -1.205251,2.340904 -4.264012,3.569224 -6.663838,2.676023 z m 15.09461,-0.0085 c -1.30421,-0.351129 -3.02705,-1.384086 -3.24446,-1.945275 -0.17054,-0.440198 0.0802,-1.052647 0.49631,-1.212329 0.18455,-0.07082 0.90008,0.238461 1.59006,0.68729 2.34911,1.528072 5.47981,1.225084 6.2373,-0.603647 0.62648,-1.512456 -0.96469,-2.943606 -3.97049,-3.57119 -1.49538,-0.312219 -2.8932,-1.146169 -3.44898,-2.057672 -0.62021,-1.017196 -0.679,-2.816556 -0.12689,-3.884211 1.22933,-2.37726 5.64105,-3.045933 8.26808,-1.253169 0.95091,0.64893 1.18633,1.05179 0.95972,1.642324 -0.21991,0.573074 -0.93752,0.48976 -2.25149,-0.261395 -1.62352,-0.928124 -3.58597,-0.919639 -4.70306,0.02032 -0.53731,0.45212 -0.81405,0.926806 -0.81405,1.396338 0,1.47464 0.85439,2.050818 4.54647,3.066008 1.91578,0.526769 3.0334,1.46205 3.40757,2.851621 0.62262,2.312215 -0.59547,4.381042 -2.99988,5.095076 -1.59168,0.472678 -2.28216,0.477909 -3.94621,0.0299 z M -0.17387333,98.207202 c -0.23045738,-0.230457 -0.3175,-2.180023 -0.3175,-7.111354 0,-5.876004 0.0566129,-6.840837 0.41905237,-7.141636 0.30397715,-0.252278 0.54011248,-0.271471 0.85989583,-0.06989 0.38767543,0.244377 0.44939743,1.031359 0.51175973,6.525225 l 0.070916,6.247337 3.3403434,0.07401 c 2.7768021,0.06153 3.3871694,0.148389 3.6179072,0.514858 0.2011971,0.319551 0.1818772,0.556138 -0.070218,0.859896 -0.2884143,0.347517 -1.010711,0.419052 -4.2312193,0.419052 -2.6676747,0 -3.9828364,-0.0994 -4.20093773,-0.3175 z M 12.010189,98.348313 c -0.181901,-0.07276 -0.330729,-0.346425 -0.330729,-0.608143 0,-0.805614 5.431986,-13.58265 5.899983,-13.877856 0.328269,-0.207065 0.545928,-0.171762 0.856637,0.138949 0.361166,0.361164 4.547711,9.952283 5.557639,12.732208 0.312687,0.860702 0.305599,1.039828 -0.05545,1.400873 -0.636278,0.636281 -0.94188,0.387636 -1.888355,-1.536412 L 21.17558,94.820536 h -3.278413 -3.278412 l -0.874334,1.777396 c -0.869627,1.767827 -1.102646,2.003015 -1.734232,1.750381 z m 7.990187,-6.372048 c -0.22959,-0.545703 -0.781812,-1.86436 -1.227162,-2.930345 -0.445352,-1.065988 -0.896395,-1.839894 -1.002318,-1.719792 -0.154437,0.175107 -1.046126,2.226739 -2.30854,5.311595 -0.102735,0.251045 0.477941,0.330729 2.410055,0.330729 h 2.5454 z m 8.665334,6.230937 c -0.230457,-0.230457 -0.3175,-2.180023 -0.3175,-7.111354 0,-5.876004 0.05661,-6.840837 0.419052,-7.141636 0.303993,-0.252291 0.540097,-0.271476 0.859896,-0.06987 0.389684,0.245663 0.449046,1.069136 0.511524,7.095831 0.07058,6.808198 -0.01178,7.544525 -0.843909,7.544525 -0.17136,0 -0.454438,-0.142875 -0.629063,-0.3175 z m 7.289271,0.03172 c -0.422061,-0.245827 -0.463021,-0.87422 -0.463021,-7.103309 0,-5.687163 0.0652,-6.887733 0.388636,-7.156161 0.276849,-0.229764 1.437426,-0.296162 4.034896,-0.230833 2.960142,0.07445 3.79562,0.183033 4.44001,0.577056 2.287278,1.398598 2.709029,4.690801 0.835583,6.522582 l -0.871919,0.852525 0.721109,0.721109 c 0.548693,0.548693 0.767794,1.094761 0.916361,2.283846 0.110384,0.883475 0.426685,1.875769 0.727699,2.282912 0.440619,0.595969 0.474059,0.790528 0.193889,1.128112 -0.186205,0.224364 -0.486515,0.407937 -0.667356,0.407937 -0.665247,0 -1.705509,-1.095065 -1.83312,-1.929693 -0.07134,-0.466638 -0.201475,-1.301557 -0.289179,-1.855378 -0.281205,-1.775756 -0.787794,-2.035762 -3.966401,-2.035762 h -2.778125 v 2.749817 c 0,2.2634 -0.07403,2.778226 -0.418515,2.910417 -0.500301,0.191984 -0.404887,0.20429 -0.970547,-0.125177 z m 7.249689,-7.67302 c 0.607549,-0.325152 1.283123,-1.761479 1.283123,-2.728031 0,-0.35731 -0.308239,-1.015979 -0.684977,-1.463705 l -0.68498,-0.814051 h -2.886895 -2.886898 v 2.645833 2.645834 h 2.663227 c 1.464776,0 2.903607,-0.128646 3.1974,-0.28588 z m 8.744373,7.641296 c -0.230407,-0.230407 -0.3175,-2.175462 -0.3175,-7.090833 0,-4.915371 0.08709,-6.860426 0.3175,-7.090833 0.491689,-0.491689 7.887767,-0.436505 8.561618,0.06388 0.410959,0.305168 0.455052,0.477001 0.220655,0.859896 -0.254585,0.415869 -0.748192,0.488183 -3.770313,0.552344 l -3.477376,0.07382 v 2.24128 2.241278 h 2.756484 c 3.191598,0 3.593516,0.103573 3.593516,0.926041 0,0.822468 -0.401918,0.926042 -3.593516,0.926042 h -2.756484 v 2.373569 2.373572 l 3.477376,0.07382 c 2.904998,0.06167 3.523067,0.146389 3.754969,0.51467 0.201232,0.319572 0.181923,0.556117 -0.07019,0.859896 -0.289367,0.348665 -1.022297,0.419052 -4.363511,0.419052 -2.770569,0 -4.114178,-0.09845 -4.33323,-0.3175 z m 21.709063,0.02289 c -0.247161,-0.254373 -0.330729,-2.057077 -0.330729,-7.134236 0,-5.657741 0.06511,-6.847885 0.389337,-7.116974 0.277685,-0.230457 1.396844,-0.29469 3.902604,-0.223986 3.907597,0.110265 4.941067,0.437576 5.451694,1.726608 0.655413,1.654535 0.497811,3.021912 -0.476162,4.131204 l -0.786694,0.895993 0.655011,0.298445 c 1.629939,0.742648 2.297099,3.976806 1.19367,5.78649 -0.898631,1.473803 -1.816013,1.762323 -5.963835,1.875642 -2.781298,0.07599 -3.786566,0.0164 -4.034896,-0.239186 z m 7.891706,-2.330863 c 0.836655,-0.836652 0.999847,-1.879703 0.474493,-3.032728 -0.446426,-0.979797 -1.426909,-1.251006 -4.213289,-1.165426 l -2.499264,0.07676 -0.01717,2.248959 c -0.0094,1.236927 0.02736,2.338255 0.08176,2.447395 0.05441,0.109141 1.29168,0.198438 2.749494,0.198438 2.576801,0 2.672096,-0.02154 3.423968,-0.773398 z M 80.98109,89.096318 c 0.700894,-0.891043 0.698182,-1.951461 -0.0073,-2.848317 -0.542168,-0.689253 -0.617538,-0.704569 -3.10506,-0.630991 l -2.549404,0.07541 -0.01238,2.050521 -0.01238,2.050521 h 2.569073 c 2.460273,0 2.592295,-0.02953 3.117442,-0.69714 z m 39.23045,9.110884 c -0.23045,-0.230457 -0.3175,-2.180023 -0.3175,-7.111354 0,-5.876004 0.0566,-6.840837 0.41906,-7.141636 0.30368,-0.252037 0.54042,-0.271396 0.85989,-0.07032 0.36032,0.22678 0.45451,0.815996 0.51566,3.225803 l 0.0748,2.948345 h 3.82779 3.82779 v -2.901109 c 0,-2.597449 0.0536,-2.929774 0.51178,-3.175 0.66187,-0.354221 0.69723,-0.350001 1.18912,0.141883 0.62335,0.623353 0.62335,13.361765 0,13.985118 -0.49189,0.491884 -0.52725,0.496104 -1.18912,0.141883 -0.46029,-0.24634 -0.51178,-0.579049 -0.51178,-3.307292 v -3.0334 h -3.83646 -3.83645 v 2.989792 c 0,2.920984 -0.17981,3.624791 -0.92604,3.624791 -0.16008,0 -0.43392,-0.142875 -0.60855,-0.3175 z m 16.66875,0 c -0.23045,-0.230457 -0.3175,-2.180023 -0.3175,-7.111354 0,-5.690346 0.0639,-6.846898 0.39351,-7.120432 0.21643,-0.179621 0.5772,-0.256091 0.80171,-0.169937 0.22452,0.08615 1.58391,1.95906 3.02087,4.162012 l 2.61265,4.005366 2.66047,-3.977963 c 1.46325,-2.187879 2.78182,-4.052969 2.93016,-4.144645 0.14833,-0.09168 0.51028,-0.03793 0.80433,0.119444 0.51536,0.275809 0.53464,0.533527 0.53464,7.146676 0,6.503813 -0.0265,6.87474 -0.51,7.133492 -0.66878,0.35792 -1.25223,0.114247 -1.44469,-0.603356 -0.0851,-0.317357 -0.15657,-2.660605 -0.15878,-5.207219 l -0.004,-4.630209 -2.11522,3.175 c -1.66031,2.49215 -2.24349,3.175 -2.71156,3.175 -0.46921,0 -1.06169,-0.698952 -2.77915,-3.278531 l -2.18281,-3.278532 v 5.04557 c 0,4.234103 -0.0669,5.112438 -0.41578,5.461344 -0.49901,0.499012 -0.70038,0.516702 -1.11881,0.09827 z m 18.0049,0.141111 c -0.1819,-0.07276 -0.33073,-0.346425 -0.33073,-0.608143 0,-0.805614 5.43198,-13.58265 5.9,-13.877856 0.32824,-0.207065 0.54591,-0.171762 0.85661,0.138949 0.36118,0.361164 4.54771,9.952283 5.55765,12.732208 0.31269,0.860702 0.3056,1.039828 -0.0555,1.400873 -0.63627,0.636281 -0.94187,0.387636 -1.88836,-1.536412 l -0.87434,-1.777396 h -3.2784 -3.27841 l -0.87434,1.777396 c -0.86963,1.767827 -1.10264,2.003015 -1.73423,1.750381 z m 7.99018,-6.372048 c -0.22958,-0.545703 -0.78182,-1.86436 -1.22717,-2.930345 -0.44534,-1.065988 -0.89638,-1.839894 -1.00232,-1.719792 -0.15443,0.175107 -1.04611,2.226739 -2.30851,5.311595 -0.10274,0.251045 0.47794,0.330729 2.41003,0.330729 h 2.5454 z m 8.66534,6.230937 c -0.23045,-0.230457 -0.3175,-2.180023 -0.3175,-7.111354 0,-5.690346 0.0639,-6.846898 0.39351,-7.120432 0.21643,-0.179621 0.56251,-0.261726 0.76907,-0.18246 0.20659,0.07927 2.26192,2.622667 4.56745,5.651998 l 4.19184,5.507873 0.0719,-5.271481 c 0.0799,-5.858994 0.31655,-6.737697 1.49672,-5.557536 0.35478,0.35478 0.41524,1.334825 0.41215,6.680729 -0.003,3.445724 -0.0732,6.524609 -0.15836,6.841966 -0.17039,0.635315 -0.69784,0.937768 -1.25949,0.722236 -0.19974,-0.07665 -2.19403,-2.509599 -4.43177,-5.406562 -2.23774,-2.896965 -4.15793,-5.271299 -4.26707,-5.2763 -0.10914,-0.005 -0.19844,2.35942 -0.19844,5.254266 0,4.555418 -0.0563,5.284959 -0.41852,5.423958 -0.53284,0.204478 -0.48045,0.214135 -0.85148,-0.156901 z M -68.60658,97.407497 c -0.885801,-1.264661 -0.177742,-2.851545 1.272347,-2.851545 1.117812,0 1.709076,0.462024 1.911649,1.493793 0.125211,0.637746 0.03326,0.962493 -0.393311,1.389062 -0.76849,0.768491 -2.242063,0.751957 -2.790685,-0.03131 z m -10.938968,-9.871168 c -1.000992,-0.427527 -1.745818,-1.874261 -1.489894,-2.893938 0.492179,-1.961 3.035312,-2.724338 4.364095,-1.309916 0.909053,0.967645 0.8992,2.761594 -0.02003,3.645184 -0.869376,0.835673 -1.785678,1.015029 -2.854174,0.55867 z m 8.795274,-1.038143 c -0.79339,-0.793388 -0.821198,-1.442093 -0.101063,-2.357594 1.015643,-1.291182 3.155797,-0.589497 3.155797,1.034677 0,0.814166 -1.087565,1.97235 -1.852083,1.97235 -0.304271,0 -0.845463,-0.292246 -1.202651,-0.649433 z m 4.642234,-9.350028 c -1.299853,-0.405324 -1.791113,-2.194812 -0.839063,-3.056406 0.612117,-0.553958 1.996062,-0.566005 2.539955,-0.02212 1.213589,1.213588 -0.09369,3.579675 -1.700892,3.078514 z m 37.20964,-2.719742 c -1.291182,-1.015643 -0.589497,-3.155797 1.034677,-3.155797 0.791578,0 1.97235,1.080212 1.97235,1.804376 0,0.766802 -1.015815,1.899791 -1.703314,1.899791 -0.333616,0 -0.920287,-0.246767 -1.303713,-0.54837 z m -46.754984,-1.509398 c -1.982883,-1.771706 -0.329126,-4.92945 2.321229,-4.432239 2.221802,0.416814 2.617108,3.732056 0.571159,4.790059 -1.096724,0.567137 -1.97939,0.457941 -2.892388,-0.35782 z m 52.606276,-2.725928 c -0.757295,-0.441084 -1.321993,-1.797119 -1.143839,-2.746756 0.383789,-2.045769 2.863729,-2.842324 4.318845,-1.387211 0.581181,0.581182 0.727604,0.970609 0.727604,1.935126 0,0.995 -0.130654,1.319903 -0.742358,1.846069 -0.793337,0.6824 -2.304666,0.851104 -3.160252,0.352772 z m -36.181765,-1.301721 c -1.088753,-1.088752 -0.188135,-3.175 1.370623,-3.175 0.652952,0 1.804377,1.151424 1.804377,1.804376 0,1.558759 -2.086248,2.459376 -3.175,1.370624 z m 21.44685,-1.307317 c -0.995305,-0.995304 -0.581518,-2.626767 0.775459,-3.057453 0.763574,-0.242351 1.935575,0.418131 2.230612,1.257064 0.57291,1.629061 -1.772621,3.03384 -3.006071,1.800389 z m -11.646959,-2.711323 c -0.670031,-0.719193 -0.688491,-1.559541 -0.05154,-2.346145 0.999104,-1.233842 3.21623,-0.465815 3.21623,1.114126 0,1.616538 -2.059498,2.418305 -3.164692,1.232019 z m -15.539826,-2.440744 c -0.616423,-0.530225 -0.742357,-0.848299 -0.742357,-1.874991 0,-1.632884 0.923938,-2.513542 2.637068,-2.513542 0.961966,0 1.26552,0.134493 1.83733,0.814052 0.792075,0.941329 0.867783,1.837544 0.244374,2.892893 -0.84097,1.423649 -2.736074,1.748483 -3.976415,0.681588 z m 30.448875,-1.202563 c -0.897602,-0.371822 -1.69019,-1.581931 -1.69019,-2.580545 0,-1.265412 1.199557,-2.457508 2.472888,-2.457508 1.066797,0 2.410455,0.978776 2.64913,1.929733 0.47806,1.904738 -1.660787,3.841962 -3.431828,3.10832 z m -15.998042,-3.430201 c -0.462209,-0.462206 -0.773398,-1.053021 -0.773398,-1.468348 0,-2.43124 2.836087,-3.694123 4.518268,-2.011939 1.646719,1.646716 0.499152,4.253685 -1.872435,4.253685 -0.861949,0 -1.26588,-0.166841 -1.872435,-0.773398 z"
         id="path27"
         inkscape:connector-curvature="0" />
      <path
         style="fill:#02d8b1;stroke-width:0.26458332"
         d="m -53.571304,119.79723 c -0.907193,-0.44272 -1.424236,-1.32876 -1.424236,-2.44069 0,-2.51988 3.8813,-3.16118 4.872,-0.80499 0.938192,2.2313 -1.268859,4.30899 -3.447764,3.24568 z m 14.613933,-1.24156 c -0.92129,-0.92129 -1.092433,-1.80605 -0.564534,-2.91851 1.147363,-2.41789 4.899282,-1.62725 4.899282,1.03243 0,1.32035 -0.935776,2.24939 -2.436011,2.41849 -1.062723,0.11979 -1.318173,0.0482 -1.898737,-0.53241 z m -28.644747,-4.93023 c -2.230369,-1.36 -1.35703,-4.63767 1.235712,-4.63767 2.585924,0 3.560255,3.59029 1.292572,4.76295 -0.987131,0.51047 -1.529771,0.48358 -2.528284,-0.12528 z m 41.614532,-2.83369 c -1.588506,-1.58851 -0.382815,-4.32955 1.904423,-4.32955 1.346689,0 2.425123,1.13583 2.425123,2.5542 0,2.16119 -2.796847,3.30805 -4.329546,1.77535 z m -50.601097,-8.56147 c -0.891876,-0.35419 -1.69019,-1.56853 -1.69019,-2.570986 0,-0.662332 0.219966,-1.130678 0.806521,-1.717236 0.714947,-0.714944 0.932704,-0.789596 1.917817,-0.657466 1.883031,0.252569 2.919179,2.239749 2.032097,3.897278 -0.498422,0.93131 -2.036699,1.45728 -3.066245,1.04841 z m 65.381685,-3.724974 c -2.337348,-0.573143 -4.553805,-2.764798 -5.195644,-5.13751 -0.380971,-1.408351 -0.15987,-4.551487 0.395427,-5.621293 1.364959,-2.629659 3.756023,-4.114392 6.6523,-4.130754 2.2740673,-0.01283 4.365625,0.788784 4.365625,1.673212 0,0.798227 -0.6848052,0.943824 -2.0827524,0.442817 -1.4862386,-0.532649 -3.1906816,-0.561512 -4.3579516,-0.0738 -1.33186,0.556488 -2.748288,2.384639 -3.077959,3.972658 -0.284861,1.372164 -0.04364,3.61184 0.495615,4.601702 0.415086,0.761934 1.96642,2.126208 2.756418,2.424049 1.090737,0.411223 3.2630456,0.342577 4.1810095,-0.13212 1.0745153,-0.555654 1.9307943,-0.407326 2.0387125,0.353153 0.069429,0.489275 -0.1321911,0.697923 -1.0792486,1.116851 -1.4295279,0.632349 -3.676912,0.857914 -5.0915514,0.51103 z M 92.8428,98.427934 c -1.501489,-0.558843 -2.246757,-1.130671 -3.045608,-2.336832 -0.723958,-1.093079 -0.727475,-1.120921 -0.812202,-6.427743 -0.07509,-4.703455 -0.03361,-5.372637 0.352909,-5.69342 0.319344,-0.265033 0.557427,-0.288383 0.878843,-0.0862 0.378777,0.23827 0.459467,0.999739 0.573135,5.408615 0.124751,4.838864 0.167407,5.180536 0.748464,5.995191 1.696913,2.379112 5.155443,2.1263 6.461021,-0.472286 0.389494,-0.775243 0.462675,-1.678813 0.463021,-5.717019 5.29e-4,-5.008004 0.137311,-5.625658 1.159783,-5.233297 0.665974,0.255556 0.752694,1.051597 0.652914,5.993066 -0.0868,4.29854 -0.13418,4.661996 -0.768442,5.893898 -1.205251,2.340904 -4.264012,3.569224 -6.663838,2.676023 z m 15.09461,-0.0085 c -1.30421,-0.351129 -3.02705,-1.384086 -3.24446,-1.945275 -0.17054,-0.440198 0.0802,-1.052647 0.49631,-1.212329 0.18455,-0.07082 0.90008,0.238461 1.59006,0.68729 2.34911,1.528072 5.47981,1.225084 6.2373,-0.603647 0.62648,-1.512456 -0.96469,-2.943606 -3.97049,-3.57119 -1.49538,-0.312219 -2.8932,-1.146169 -3.44898,-2.057672 -0.62021,-1.017196 -0.679,-2.816556 -0.12689,-3.884211 1.22933,-2.37726 5.64105,-3.045933 8.26808,-1.253169 0.95091,0.64893 1.18633,1.05179 0.95972,1.642324 -0.21991,0.573074 -0.93752,0.48976 -2.25149,-0.261395 -1.62352,-0.928124 -3.58597,-0.919639 -4.70306,0.02032 -0.53731,0.45212 -0.81405,0.926806 -0.81405,1.396338 0,1.47464 0.85439,2.050818 4.54647,3.066008 1.91578,0.526769 3.0334,1.46205 3.40757,2.851621 0.62262,2.312215 -0.59547,4.381042 -2.99988,5.095076 -1.59168,0.472678 -2.28216,0.477909 -3.94621,0.0299 z M -0.17387333,98.207202 c -0.23045738,-0.230457 -0.3175,-2.180023 -0.3175,-7.111354 0,-5.876004 0.0566129,-6.840837 0.41905237,-7.141636 0.30397715,-0.252278 0.54011248,-0.271471 0.85989583,-0.06989 0.38767543,0.244377 0.44939743,1.031359 0.51175973,6.525225 l 0.070916,6.247337 3.3403434,0.07401 c 2.7768021,0.06153 3.3871694,0.148389 3.6179072,0.514858 0.2011971,0.319551 0.1818772,0.556138 -0.070218,0.859896 -0.2884143,0.347517 -1.010711,0.419052 -4.2312193,0.419052 -2.6676747,0 -3.9828364,-0.0994 -4.20093773,-0.3175 z M 12.010189,98.348313 c -0.181901,-0.07276 -0.330729,-0.346425 -0.330729,-0.608143 0,-0.805614 5.431986,-13.58265 5.899983,-13.877856 0.328269,-0.207065 0.545928,-0.171762 0.856637,0.138949 0.361166,0.361164 4.547711,9.952283 5.557639,12.732208 0.312687,0.860702 0.305599,1.039828 -0.05545,1.400873 -0.636278,0.636281 -0.94188,0.387636 -1.888355,-1.536412 L 21.17558,94.820536 h -3.278413 -3.278412 l -0.874334,1.777396 c -0.869627,1.767827 -1.102646,2.003015 -1.734232,1.750381 z m 7.990187,-6.372048 c -0.22959,-0.545703 -0.781812,-1.86436 -1.227162,-2.930345 -0.445352,-1.065988 -0.896395,-1.839894 -1.002318,-1.719792 -0.154437,0.175107 -1.046126,2.226739 -2.30854,5.311595 -0.102735,0.251045 0.477941,0.330729 2.410055,0.330729 h 2.5454 z m 8.665334,6.230937 c -0.230457,-0.230457 -0.3175,-2.180023 -0.3175,-7.111354 0,-5.876004 0.05661,-6.840837 0.419052,-7.141636 0.303993,-0.252291 0.540097,-0.271476 0.859896,-0.06987 0.389684,0.245663 0.449046,1.069136 0.511524,7.095831 0.07058,6.808198 -0.01178,7.544525 -0.843909,7.544525 -0.17136,0 -0.454438,-0.142875 -0.629063,-0.3175 z m 7.289271,0.03172 c -0.422061,-0.245827 -0.463021,-0.87422 -0.463021,-7.103309 0,-5.687163 0.0652,-6.887733 0.388636,-7.156161 0.276849,-0.229764 1.437426,-0.296162 4.034896,-0.230833 2.960142,0.07445 3.79562,0.183033 4.44001,0.577056 2.287278,1.398598 2.709029,4.690801 0.835583,6.522582 l -0.871919,0.852525 0.721109,0.721109 c 0.548693,0.548693 0.767794,1.094761 0.916361,2.283846 0.110384,0.883475 0.426685,1.875769 0.727699,2.282912 0.440619,0.595969 0.474059,0.790528 0.193889,1.128112 -0.186205,0.224364 -0.486515,0.407937 -0.667356,0.407937 -0.665247,0 -1.705509,-1.095065 -1.83312,-1.929693 -0.07134,-0.466638 -0.201475,-1.301557 -0.289179,-1.855378 -0.281205,-1.775756 -0.787794,-2.035762 -3.966401,-2.035762 h -2.778125 v 2.749817 c 0,2.2634 -0.07403,2.778226 -0.418515,2.910417 -0.500301,0.191984 -0.404887,0.20429 -0.970547,-0.125177 z m 7.249689,-7.67302 c 0.607549,-0.325152 1.283123,-1.761479 1.283123,-2.728031 0,-0.35731 -0.308239,-1.015979 -0.684977,-1.463705 l -0.68498,-0.814051 h -2.886895 -2.886898 v 2.645833 2.645834 h 2.663227 c 1.464776,0 2.903607,-0.128646 3.1974,-0.28588 z m 8.744373,7.641296 c -0.230407,-0.230407 -0.3175,-2.175462 -0.3175,-7.090833 0,-4.915371 0.08709,-6.860426 0.3175,-7.090833 0.491689,-0.491689 7.887767,-0.436505 8.561618,0.06388 0.410959,0.305168 0.455052,0.477001 0.220655,0.859896 -0.254585,0.415869 -0.748192,0.488183 -3.770313,0.552344 l -3.477376,0.07382 v 2.24128 2.241278 h 2.756484 c 3.191598,0 3.593516,0.103573 3.593516,0.926041 0,0.822468 -0.401918,0.926042 -3.593516,0.926042 h -2.756484 v 2.373569 2.373572 l 3.477376,0.07382 c 2.904998,0.06167 3.523067,0.146389 3.754969,0.51467 0.201232,0.319572 0.181923,0.556117 -0.07019,0.859896 -0.289367,0.348665 -1.022297,0.419052 -4.363511,0.419052 -2.770569,0 -4.114178,-0.09845 -4.33323,-0.3175 z m 21.709063,0.02289 c -0.247161,-0.254373 -0.330729,-2.057077 -0.330729,-7.134236 0,-5.657741 0.06511,-6.847885 0.389337,-7.116974 0.277685,-0.230457 1.396844,-0.29469 3.902604,-0.223986 3.907597,0.110265 4.941067,0.437576 5.451694,1.726608 0.655413,1.654535 0.497811,3.021912 -0.476162,4.131204 l -0.786694,0.895993 0.655011,0.298445 c 1.629939,0.742648 2.297099,3.976806 1.19367,5.78649 -0.898631,1.473803 -1.816013,1.762323 -5.963835,1.875642 -2.781298,0.07599 -3.786566,0.0164 -4.034896,-0.239186 z m 7.891706,-2.330863 c 0.836655,-0.836652 0.999847,-1.879703 0.474493,-3.032728 -0.446426,-0.979797 -1.426909,-1.251006 -4.213289,-1.165426 l -2.499264,0.07676 -0.01717,2.248959 c -0.0094,1.236927 0.02736,2.338255 0.08176,2.447395 0.05441,0.109141 1.29168,0.198438 2.749494,0.198438 2.576801,0 2.672096,-0.02154 3.423968,-0.773398 z M 80.98109,89.096318 c 0.700894,-0.891043 0.698182,-1.951461 -0.0073,-2.848317 -0.542168,-0.689253 -0.617538,-0.704569 -3.10506,-0.630991 l -2.549404,0.07541 -0.01238,2.050521 -0.01238,2.050521 h 2.569073 c 2.460273,0 2.592295,-0.02953 3.117442,-0.69714 z m 39.23045,9.110884 c -0.23045,-0.230457 -0.3175,-2.180023 -0.3175,-7.111354 0,-5.876004 0.0566,-6.840837 0.41906,-7.141636 0.30368,-0.252037 0.54042,-0.271396 0.85989,-0.07032 0.36032,0.22678 0.45451,0.815996 0.51566,3.225803 l 0.0748,2.948345 h 3.82779 3.82779 v -2.901109 c 0,-2.597449 0.0536,-2.929774 0.51178,-3.175 0.66187,-0.354221 0.69723,-0.350001 1.18912,0.141883 0.62335,0.623353 0.62335,13.361765 0,13.985118 -0.49189,0.491884 -0.52725,0.496104 -1.18912,0.141883 -0.46029,-0.24634 -0.51178,-0.579049 -0.51178,-3.307292 v -3.0334 h -3.83646 -3.83645 v 2.989792 c 0,2.920984 -0.17981,3.624791 -0.92604,3.624791 -0.16008,0 -0.43392,-0.142875 -0.60855,-0.3175 z m 16.66875,0 c -0.23045,-0.230457 -0.3175,-2.180023 -0.3175,-7.111354 0,-5.690346 0.0639,-6.846898 0.39351,-7.120432 0.21643,-0.179621 0.5772,-0.256091 0.80171,-0.169937 0.22452,0.08615 1.58391,1.95906 3.02087,4.162012 l 2.61265,4.005366 2.66047,-3.977963 c 1.46325,-2.187879 2.78182,-4.052969 2.93016,-4.144645 0.14833,-0.09168 0.51028,-0.03793 0.80433,0.119444 0.51536,0.275809 0.53464,0.533527 0.53464,7.146676 0,6.503813 -0.0265,6.87474 -0.51,7.133492 -0.66878,0.35792 -1.25223,0.114247 -1.44469,-0.603356 -0.0851,-0.317357 -0.15657,-2.660605 -0.15878,-5.207219 l -0.004,-4.630209 -2.11522,3.175 c -1.66031,2.49215 -2.24349,3.175 -2.71156,3.175 -0.46921,0 -1.06169,-0.698952 -2.77915,-3.278531 l -2.18281,-3.278532 v 5.04557 c 0,4.234103 -0.0669,5.112438 -0.41578,5.461344 -0.49901,0.499012 -0.70038,0.516702 -1.11881,0.09827 z m 18.0049,0.141111 c -0.1819,-0.07276 -0.33073,-0.346425 -0.33073,-0.608143 0,-0.805614 5.43198,-13.58265 5.9,-13.877856 0.32824,-0.207065 0.54591,-0.171762 0.85661,0.138949 0.36118,0.361164 4.54771,9.952283 5.55765,12.732208 0.31269,0.860702 0.3056,1.039828 -0.0555,1.400873 -0.63627,0.636281 -0.94187,0.387636 -1.88836,-1.536412 l -0.87434,-1.777396 h -3.2784 -3.27841 l -0.87434,1.777396 c -0.86963,1.767827 -1.10264,2.003015 -1.73423,1.750381 z m 7.99018,-6.372048 c -0.22958,-0.545703 -0.78182,-1.86436 -1.22717,-2.930345 -0.44534,-1.065988 -0.89638,-1.839894 -1.00232,-1.719792 -0.15443,0.175107 -1.04611,2.226739 -2.30851,5.311595 -0.10274,0.251045 0.47794,0.330729 2.41003,0.330729 h 2.5454 z m 8.66534,6.230937 c -0.23045,-0.230457 -0.3175,-2.180023 -0.3175,-7.111354 0,-5.690346 0.0639,-6.846898 0.39351,-7.120432 0.21643,-0.179621 0.56251,-0.261726 0.76907,-0.18246 0.20659,0.07927 2.26192,2.622667 4.56745,5.651998 l 4.19184,5.507873 0.0719,-5.271481 c 0.0799,-5.858994 0.31655,-6.737697 1.49672,-5.557536 0.35478,0.35478 0.41524,1.334825 0.41215,6.680729 -0.003,3.445724 -0.0732,6.524609 -0.15836,6.841966 -0.17039,0.635315 -0.69784,0.937768 -1.25949,0.722236 -0.19974,-0.07665 -2.19403,-2.509599 -4.43177,-5.406562 -2.23774,-2.896965 -4.15793,-5.271299 -4.26707,-5.2763 -0.10914,-0.005 -0.19844,2.35942 -0.19844,5.254266 0,4.555418 -0.0563,5.284959 -0.41852,5.423958 -0.53284,0.204478 -0.48045,0.214135 -0.85148,-0.156901 z M -80.275275,87.027353 c -1.167657,-1.167657 -0.844331,-3.433639 0.582712,-4.083841 2.189136,-0.99744 4.271528,0.767709 3.535762,2.997102 -0.392134,1.18818 -1.167818,1.736172 -2.457553,1.736172 -0.721149,0 -1.197904,-0.186415 -1.660921,-0.649433 z m 5.265858,-13.63584 c -2.097789,-0.846563 -1.766372,-4.41358 0.455409,-4.901565 1.571088,-0.345069 3.154301,0.924931 3.154301,2.530272 0,0.899668 -0.828757,2.064919 -1.679567,2.361514 -0.911156,0.31763 -1.164108,0.318913 -1.930143,0.0098 z m 51.699985,-3.577859 c -0.365868,-0.365872 -0.736324,-1.020766 -0.823237,-1.455323 -0.59798,-2.989905 3.672837,-4.175159 4.845261,-1.344676 1.022446,2.468402 -2.147093,4.674929 -4.022024,2.799999 z m -41.131109,-7.010821 c -0.607427,-0.244621 -1.402916,-1.518066 -1.402916,-2.245839 0,-0.754952 0.737032,-1.873594 1.447816,-2.197447 1.080289,-0.492215 2.155997,-0.377034 2.963188,0.317283 0.588425,0.506143 0.736346,0.857057 0.736346,1.746867 0,1.922703 -1.892284,3.125023 -3.744434,2.379136 z m 29.003816,-2.357779 c -0.819044,-0.819041 -1.016781,-1.981626 -0.500973,-2.945424 0.338556,-0.632595 1.607439,-1.308261 2.456879,-1.308261 1.50046,0 2.750542,1.969995 2.227225,3.509865 -0.570762,1.679471 -2.843376,2.083575 -4.183131,0.74382 z m -14.87261,-2.404827 c -1.810684,-1.424284 -0.674114,-4.494691 1.663795,-4.494691 0.924433,0 2.022837,0.722217 2.368844,1.557546 0.713446,1.722414 -0.479412,3.469537 -2.368844,3.469537 -0.588333,0 -1.26034,-0.215032 -1.663795,-0.532392 z"
         id="path25"
         inkscape:connector-curvature="0" />
      <path
         style="fill:#3f7a9c;stroke-width:0.26458332"
         d="m -11.206998,98.505306 c -2.337348,-0.573143 -4.553805,-2.764798 -5.195644,-5.13751 -0.380971,-1.408351 -0.15987,-4.551487 0.395427,-5.621293 1.364959,-2.629659 3.756023,-4.114392 6.6523,-4.130754 2.2740673,-0.01283 4.365625,0.788784 4.365625,1.673212 0,0.798227 -0.6848052,0.943824 -2.0827524,0.442817 -1.4862386,-0.532649 -3.1906816,-0.561512 -4.3579516,-0.0738 -1.33186,0.556488 -2.748288,2.384639 -3.077959,3.972658 -0.284861,1.372164 -0.04364,3.61184 0.495615,4.601702 0.415086,0.761934 1.96642,2.126208 2.756418,2.424049 1.090737,0.411223 3.2630456,0.342577 4.1810095,-0.13212 1.0745153,-0.555654 1.9307943,-0.407326 2.0387125,0.353153 0.069429,0.489275 -0.1321911,0.697923 -1.0792486,1.116851 -1.4295279,0.632349 -3.676912,0.857914 -5.0915514,0.51103 z M 92.8428,98.427934 c -1.501489,-0.558843 -2.246757,-1.130671 -3.045608,-2.336832 -0.723958,-1.093079 -0.727475,-1.120921 -0.812202,-6.427743 -0.07509,-4.703455 -0.03361,-5.372637 0.352909,-5.69342 0.319344,-0.265033 0.557427,-0.288383 0.878843,-0.0862 0.378777,0.23827 0.459467,0.999739 0.573135,5.408615 0.124751,4.838864 0.167407,5.180536 0.748464,5.995191 1.696913,2.379112 5.155443,2.1263 6.461021,-0.472286 0.389494,-0.775243 0.462675,-1.678813 0.463021,-5.717019 5.29e-4,-5.008004 0.137311,-5.625658 1.159783,-5.233297 0.665974,0.255556 0.752694,1.051597 0.652914,5.993066 -0.0868,4.29854 -0.13418,4.661996 -0.768442,5.893898 -1.205251,2.340904 -4.264012,3.569224 -6.663838,2.676023 z m 15.09461,-0.0085 c -1.30421,-0.351129 -3.02705,-1.384086 -3.24446,-1.945275 -0.17054,-0.440198 0.0802,-1.052647 0.49631,-1.212329 0.18455,-0.07082 0.90008,0.238461 1.59006,0.68729 2.34911,1.528072 5.47981,1.225084 6.2373,-0.603647 0.62648,-1.512456 -0.96469,-2.943606 -3.97049,-3.57119 -1.49538,-0.312219 -2.8932,-1.146169 -3.44898,-2.057672 -0.62021,-1.017196 -0.679,-2.816556 -0.12689,-3.884211 1.22933,-2.37726 5.64105,-3.045933 8.26808,-1.253169 0.95091,0.64893 1.18633,1.05179 0.95972,1.642324 -0.21991,0.573074 -0.93752,0.48976 -2.25149,-0.261395 -1.62352,-0.928124 -3.58597,-0.919639 -4.70306,0.02032 -0.53731,0.45212 -0.81405,0.926806 -0.81405,1.396338 0,1.47464 0.85439,2.050818 4.54647,3.066008 1.91578,0.526769 3.0334,1.46205 3.40757,2.851621 0.62262,2.312215 -0.59547,4.381042 -2.99988,5.095076 -1.59168,0.472678 -2.28216,0.477909 -3.94621,0.0299 z M -0.17387333,98.207202 c -0.23045738,-0.230457 -0.3175,-2.180023 -0.3175,-7.111354 0,-5.876004 0.0566129,-6.840837 0.41905237,-7.141636 0.30397715,-0.252278 0.54011248,-0.271471 0.85989583,-0.06989 0.38767543,0.244377 0.44939743,1.031359 0.51175973,6.525225 l 0.070916,6.247337 3.3403434,0.07401 c 2.7768021,0.06153 3.3871694,0.148389 3.6179072,0.514858 0.2011971,0.319551 0.1818772,0.556138 -0.070218,0.859896 -0.2884143,0.347517 -1.010711,0.419052 -4.2312193,0.419052 -2.6676747,0 -3.9828364,-0.0994 -4.20093773,-0.3175 z M 12.010189,98.348313 c -0.181901,-0.07276 -0.330729,-0.346425 -0.330729,-0.608143 0,-0.805614 5.431986,-13.58265 5.899983,-13.877856 0.328269,-0.207065 0.545928,-0.171762 0.856637,0.138949 0.361166,0.361164 4.547711,9.952283 5.557639,12.732208 0.312687,0.860702 0.305599,1.039828 -0.05545,1.400873 -0.636278,0.636281 -0.94188,0.387636 -1.888355,-1.536412 L 21.17558,94.820536 h -3.278413 -3.278412 l -0.874334,1.777396 c -0.869627,1.767827 -1.102646,2.003015 -1.734232,1.750381 z m 7.990187,-6.372048 c -0.22959,-0.545703 -0.781812,-1.86436 -1.227162,-2.930345 -0.445352,-1.065988 -0.896395,-1.839894 -1.002318,-1.719792 -0.154437,0.175107 -1.046126,2.226739 -2.30854,5.311595 -0.102735,0.251045 0.477941,0.330729 2.410055,0.330729 h 2.5454 z m 8.665334,6.230937 c -0.230457,-0.230457 -0.3175,-2.180023 -0.3175,-7.111354 0,-5.876004 0.05661,-6.840837 0.419052,-7.141636 0.303993,-0.252291 0.540097,-0.271476 0.859896,-0.06987 0.389684,0.245663 0.449046,1.069136 0.511524,7.095831 0.07058,6.808198 -0.01178,7.544525 -0.843909,7.544525 -0.17136,0 -0.454438,-0.142875 -0.629063,-0.3175 z m 7.289271,0.03172 c -0.422061,-0.245827 -0.463021,-0.87422 -0.463021,-7.103309 0,-5.687163 0.0652,-6.887733 0.388636,-7.156161 0.276849,-0.229764 1.437426,-0.296162 4.034896,-0.230833 2.960142,0.07445 3.79562,0.183033 4.44001,0.577056 2.287278,1.398598 2.709029,4.690801 0.835583,6.522582 l -0.871919,0.852525 0.721109,0.721109 c 0.548693,0.548693 0.767794,1.094761 0.916361,2.283846 0.110384,0.883475 0.426685,1.875769 0.727699,2.282912 0.440619,0.595969 0.474059,0.790528 0.193889,1.128112 -0.186205,0.224364 -0.486515,0.407937 -0.667356,0.407937 -0.665247,0 -1.705509,-1.095065 -1.83312,-1.929693 -0.07134,-0.466638 -0.201475,-1.301557 -0.289179,-1.855378 -0.281205,-1.775756 -0.787794,-2.035762 -3.966401,-2.035762 h -2.778125 v 2.749817 c 0,2.2634 -0.07403,2.778226 -0.418515,2.910417 -0.500301,0.191984 -0.404887,0.20429 -0.970547,-0.125177 z m 7.249689,-7.67302 c 0.607549,-0.325152 1.283123,-1.761479 1.283123,-2.728031 0,-0.35731 -0.308239,-1.015979 -0.684977,-1.463705 l -0.68498,-0.814051 h -2.886895 -2.886898 v 2.645833 2.645834 h 2.663227 c 1.464776,0 2.903607,-0.128646 3.1974,-0.28588 z m 8.744373,7.641296 c -0.230407,-0.230407 -0.3175,-2.175462 -0.3175,-7.090833 0,-4.915371 0.08709,-6.860426 0.3175,-7.090833 0.491689,-0.491689 7.887767,-0.436505 8.561618,0.06388 0.410959,0.305168 0.455052,0.477001 0.220655,0.859896 -0.254585,0.415869 -0.748192,0.488183 -3.770313,0.552344 l -3.477376,0.07382 v 2.24128 2.241278 h 2.756484 c 3.191598,0 3.593516,0.103573 3.593516,0.926041 0,0.822468 -0.401918,0.926042 -3.593516,0.926042 h -2.756484 v 2.373569 2.373572 l 3.477376,0.07382 c 2.904998,0.06167 3.523067,0.146389 3.754969,0.51467 0.201232,0.319572 0.181923,0.556117 -0.07019,0.859896 -0.289367,0.348665 -1.022297,0.419052 -4.363511,0.419052 -2.770569,0 -4.114178,-0.09845 -4.33323,-0.3175 z m 21.709063,0.02289 c -0.247161,-0.254373 -0.330729,-2.057077 -0.330729,-7.134236 0,-5.657741 0.06511,-6.847885 0.389337,-7.116974 0.277685,-0.230457 1.396844,-0.29469 3.902604,-0.223986 3.907597,0.110265 4.941067,0.437576 5.451694,1.726608 0.655413,1.654535 0.497811,3.021912 -0.476162,4.131204 l -0.786694,0.895993 0.655011,0.298445 c 1.629939,0.742648 2.297099,3.976806 1.19367,5.78649 -0.898631,1.473803 -1.816013,1.762323 -5.963835,1.875642 -2.781298,0.07599 -3.786566,0.0164 -4.034896,-0.239186 z m 7.891706,-2.330863 c 0.836655,-0.836652 0.999847,-1.879703 0.474493,-3.032728 -0.446426,-0.979797 -1.426909,-1.251006 -4.213289,-1.165426 l -2.499264,0.07676 -0.01717,2.248959 c -0.0094,1.236927 0.02736,2.338255 0.08176,2.447395 0.05441,0.109141 1.29168,0.198438 2.749494,0.198438 2.576801,0 2.672096,-0.02154 3.423968,-0.773398 z M 80.98109,89.096318 c 0.700894,-0.891043 0.698182,-1.951461 -0.0073,-2.848317 -0.542168,-0.689253 -0.617538,-0.704569 -3.10506,-0.630991 l -2.549404,0.07541 -0.01238,2.050521 -0.01238,2.050521 h 2.569073 c 2.460273,0 2.592295,-0.02953 3.117442,-0.69714 z m 39.23045,9.110884 c -0.23045,-0.230457 -0.3175,-2.180023 -0.3175,-7.111354 0,-5.876004 0.0566,-6.840837 0.41906,-7.141636 0.30368,-0.252037 0.54042,-0.271396 0.85989,-0.07032 0.36032,0.22678 0.45451,0.815996 0.51566,3.225803 l 0.0748,2.948345 h 3.82779 3.82779 v -2.901109 c 0,-2.597449 0.0536,-2.929774 0.51178,-3.175 0.66187,-0.354221 0.69723,-0.350001 1.18912,0.141883 0.62335,0.623353 0.62335,13.361765 0,13.985118 -0.49189,0.491884 -0.52725,0.496104 -1.18912,0.141883 -0.46029,-0.24634 -0.51178,-0.579049 -0.51178,-3.307292 v -3.0334 h -3.83646 -3.83645 v 2.989792 c 0,2.920984 -0.17981,3.624791 -0.92604,3.624791 -0.16008,0 -0.43392,-0.142875 -0.60855,-0.3175 z m 16.66875,0 c -0.23045,-0.230457 -0.3175,-2.180023 -0.3175,-7.111354 0,-5.690346 0.0639,-6.846898 0.39351,-7.120432 0.21643,-0.179621 0.5772,-0.256091 0.80171,-0.169937 0.22452,0.08615 1.58391,1.95906 3.02087,4.162012 l 2.61265,4.005366 2.66047,-3.977963 c 1.46325,-2.187879 2.78182,-4.052969 2.93016,-4.144645 0.14833,-0.09168 0.51028,-0.03793 0.80433,0.119444 0.51536,0.275809 0.53464,0.533527 0.53464,7.146676 0,6.503813 -0.0265,6.87474 -0.51,7.133492 -0.66878,0.35792 -1.25223,0.114247 -1.44469,-0.603356 -0.0851,-0.317357 -0.15657,-2.660605 -0.15878,-5.207219 l -0.004,-4.630209 -2.11522,3.175 c -1.66031,2.49215 -2.24349,3.175 -2.71156,3.175 -0.46921,0 -1.06169,-0.698952 -2.77915,-3.278531 l -2.18281,-3.278532 v 5.04557 c 0,4.234103 -0.0669,5.112438 -0.41578,5.461344 -0.49901,0.499012 -0.70038,0.516702 -1.11881,0.09827 z m 18.0049,0.141111 c -0.1819,-0.07276 -0.33073,-0.346425 -0.33073,-0.608143 0,-0.805614 5.43198,-13.58265 5.9,-13.877856 0.32824,-0.207065 0.54591,-0.171762 0.85661,0.138949 0.36118,0.361164 4.54771,9.952283 5.55765,12.732208 0.31269,0.860702 0.3056,1.039828 -0.0555,1.400873 -0.63627,0.636281 -0.94187,0.387636 -1.88836,-1.536412 l -0.87434,-1.777396 h -3.2784 -3.27841 l -0.87434,1.777396 c -0.86963,1.767827 -1.10264,2.003015 -1.73423,1.750381 z m 7.99018,-6.372048 c -0.22958,-0.545703 -0.78182,-1.86436 -1.22717,-2.930345 -0.44534,-1.065988 -0.89638,-1.839894 -1.00232,-1.719792 -0.15443,0.175107 -1.04611,2.226739 -2.30851,5.311595 -0.10274,0.251045 0.47794,0.330729 2.41003,0.330729 h 2.5454 z m 8.66534,6.230937 c -0.23045,-0.230457 -0.3175,-2.180023 -0.3175,-7.111354 0,-5.690346 0.0639,-6.846898 0.39351,-7.120432 0.21643,-0.179621 0.56251,-0.261726 0.76907,-0.18246 0.20659,0.07927 2.26192,2.622667 4.56745,5.651998 l 4.19184,5.507873 0.0719,-5.271481 c 0.0799,-5.858994 0.31655,-6.737697 1.49672,-5.557536 0.35478,0.35478 0.41524,1.334825 0.41215,6.680729 -0.003,3.445724 -0.0732,6.524609 -0.15836,6.841966 -0.17039,0.635315 -0.69784,0.937768 -1.25949,0.722236 -0.19974,-0.07665 -2.19403,-2.509599 -4.43177,-5.406562 -2.23774,-2.896965 -4.15793,-5.271299 -4.26707,-5.2763 -0.10914,-0.005 -0.19844,2.35942 -0.19844,5.254266 0,4.555418 -0.0563,5.284959 -0.41852,5.423958 -0.53284,0.204478 -0.48045,0.214135 -0.85148,-0.156901 z"
         id="path23"
         inkscape:connector-curvature="0" />
    </g>
  </g>
</svg>
